<svg width="252" height="141" viewBox="0 0 252 141" fill="none" xmlns="http://www.w3.org/2000/svg">
<path d="M5.348 10.168C3.93867 10.168 2.772 9.71533 1.848 8.81C0.933333 7.89533 0.476 6.738 0.476 5.338C0.476 3.938 0.933333 2.78533 1.848 1.88C2.772 0.965333 3.93867 0.508 5.348 0.508C6.76667 0.508 7.93333 0.960666 8.848 1.866C9.772 2.77133 10.234 3.92867 10.234 5.338C10.234 6.74733 9.772 7.90467 8.848 8.81C7.93333 9.71533 6.76667 10.168 5.348 10.168ZM3.29 7.536C3.81267 8.11467 4.49867 8.404 5.348 8.404C6.19733 8.404 6.88333 8.11467 7.406 7.536C7.92867 6.95733 8.19 6.22467 8.19 5.338C8.19 4.45133 7.92867 3.71867 7.406 3.14C6.88333 2.56133 6.19733 2.272 5.348 2.272C4.49867 2.272 3.81267 2.56133 3.29 3.14C2.77667 3.71867 2.52 4.45133 2.52 5.338C2.52 6.22467 2.77667 6.95733 3.29 7.536ZM11.6291 0.661999H18.4471V2.412H13.6171V4.064H16.0391C17.0004 4.064 17.7564 4.34867 18.3071 4.918C18.8577 5.48733 19.1331 6.192 19.1331 7.032C19.1331 7.872 18.8577 8.57667 18.3071 9.146C17.7564 9.71533 17.0004 10 16.0391 10H11.6291V0.661999ZM15.7731 5.814H13.6171V8.25H15.7731C16.1651 8.25 16.4824 8.138 16.7251 7.914C16.9771 7.69 17.1031 7.396 17.1031 7.032C17.1031 6.65867 16.9771 6.36467 16.7251 6.15C16.4824 5.926 16.1651 5.814 15.7731 5.814ZM19.8054 10.168V8.404C20.3094 8.404 20.6967 8.20333 20.9674 7.802C21.2381 7.39133 21.4434 6.60267 21.5834 5.436L22.1294 0.661999H28.7654V10H26.7634V2.412H23.9214L23.5574 5.576C23.4454 6.51867 23.2774 7.30267 23.0534 7.928C22.8387 8.544 22.5587 9.01067 22.2134 9.328C21.8774 9.64533 21.5227 9.86467 21.1494 9.986C20.7761 10.1073 20.3281 10.168 19.8054 10.168ZM39.3136 10H37.0456L36.4716 8.418H32.4676L31.8796 10H29.6116L33.2236 0.661999H35.7156L39.3136 10ZM35.9256 6.668L34.4696 2.65L33.0136 6.668H35.9256ZM48.17 10H45.72L42.892 6.262L42.164 7.13V10H40.176V0.661999H42.164V4.834L45.468 0.661999H47.918L44.208 5.044L48.17 10ZM52.8441 10.168C51.4348 10.168 50.2681 9.71533 49.3441 8.81C48.4294 7.89533 47.9721 6.738 47.9721 5.338C47.9721 3.938 48.4294 2.78533 49.3441 1.88C50.2681 0.965333 51.4348 0.508 52.8441 0.508C54.2628 0.508 55.4294 0.960666 56.3441 1.866C57.2681 2.77133 57.7301 3.92867 57.7301 5.338C57.7301 6.74733 57.2681 7.90467 56.3441 8.81C55.4294 9.71533 54.2628 10.168 52.8441 10.168ZM50.7861 7.536C51.3088 8.11467 51.9948 8.404 52.8441 8.404C53.6934 8.404 54.3794 8.11467 54.9021 7.536C55.4248 6.95733 55.6861 6.22467 55.6861 5.338C55.6861 4.45133 55.4248 3.71867 54.9021 3.14C54.3794 2.56133 53.6934 2.272 52.8441 2.272C51.9948 2.272 51.3088 2.56133 50.7861 3.14C50.2728 3.71867 50.0161 4.45133 50.0161 5.338C50.0161 6.22467 50.2728 6.95733 50.7861 7.536ZM71.1072 10H69.1052V2.412H64.6952V10H62.7072V0.661999H71.1072V10ZM77.3714 10.168C75.9621 10.168 74.7954 9.71533 73.8714 8.81C72.9568 7.89533 72.4994 6.738 72.4994 5.338C72.4994 3.938 72.9568 2.78533 73.8714 1.88C74.7954 0.965333 75.9621 0.508 77.3714 0.508C78.7901 0.508 79.9568 0.960666 80.8714 1.866C81.7954 2.77133 82.2574 3.92867 82.2574 5.338C82.2574 6.74733 81.7954 7.90467 80.8714 8.81C79.9568 9.71533 78.7901 10.168 77.3714 10.168ZM75.3134 7.536C75.8361 8.11467 76.5221 8.404 77.3714 8.404C78.2208 8.404 78.9068 8.11467 79.4294 7.536C79.9521 6.95733 80.2134 6.22467 80.2134 5.338C80.2134 4.45133 79.9521 3.71867 79.4294 3.14C78.9068 2.56133 78.2208 2.272 77.3714 2.272C76.5221 2.272 75.8361 2.56133 75.3134 3.14C74.8001 3.71867 74.5434 4.45133 74.5434 5.338C74.5434 6.22467 74.8001 6.95733 75.3134 7.536ZM92.0525 10H90.0505V2.412H85.6405V10H83.6525V0.661999H92.0525V10ZM95.1528 10.168C94.7328 10.168 94.3268 10.1073 93.9348 9.986C93.5521 9.85533 93.2534 9.692 93.0388 9.496L93.7948 7.9C94.2054 8.236 94.6068 8.404 94.9988 8.404C95.3348 8.404 95.5961 8.334 95.7828 8.194C95.9788 8.04467 96.1701 7.79267 96.3568 7.438L92.9127 0.661999H95.1668L97.4768 5.618L99.8008 0.661999H102.055L98.2048 8.208C97.8874 8.84267 97.4908 9.328 97.0148 9.664C96.5481 10 95.9274 10.168 95.1528 10.168ZM101.7 10.168V8.404C102.204 8.404 102.591 8.20333 102.862 7.802C103.133 7.39133 103.338 6.60267 103.478 5.436L104.024 0.661999H110.66V10H108.658V2.412H105.816L105.452 5.576C105.34 6.51867 105.172 7.30267 104.948 7.928C104.733 8.544 104.453 9.01067 104.108 9.328C103.772 9.64533 103.417 9.86467 103.044 9.986C102.671 10.1073 102.223 10.168 101.7 10.168ZM114.376 10H112.094L114.194 6.444C113.625 6.31333 113.14 6.01 112.738 5.534C112.346 5.058 112.15 4.43733 112.15 3.672C112.15 2.78533 112.43 2.062 112.99 1.502C113.56 0.941999 114.325 0.661999 115.286 0.661999H119.654V10H117.666V6.682H116.224L114.376 10ZM115.58 4.932H117.666V2.412H115.58C115.17 2.412 114.834 2.52867 114.572 2.762C114.311 2.986 114.18 3.28933 114.18 3.672C114.18 4.05467 114.311 4.36267 114.572 4.596C114.834 4.82 115.17 4.932 115.58 4.932ZM123.484 10H121.496V0.661999H125.864C126.844 0.661999 127.61 0.951333 128.16 1.53C128.72 2.09933 129 2.81333 129 3.672C129 4.52133 128.72 5.23533 128.16 5.814C127.6 6.39267 126.835 6.682 125.864 6.682H123.484V10ZM125.598 4.932C126 4.932 126.326 4.82 126.578 4.596C126.84 4.36267 126.97 4.05467 126.97 3.672C126.97 3.28933 126.84 2.986 126.578 2.762C126.326 2.52867 126 2.412 125.598 2.412H123.484V4.932H125.598ZM138.633 10H136.631V6.08H132.221V10H130.233V0.661999H132.221V4.33H136.631V0.661999H138.633V10ZM140.473 0.661999H142.461V3.98H144.841C145.811 3.98 146.577 4.26933 147.137 4.848C147.697 5.42667 147.977 6.14067 147.977 6.99C147.977 7.84867 147.697 8.56733 147.137 9.146C146.586 9.71533 145.821 10 144.841 10H140.473V0.661999ZM144.575 5.73H142.461V8.25H144.575C144.976 8.25 145.303 8.138 145.555 7.914C145.816 7.68067 145.947 7.37267 145.947 6.99C145.947 6.60733 145.816 6.304 145.555 6.08C145.303 5.84667 144.976 5.73 144.575 5.73ZM150.763 10H148.761V0.661999H150.763V10ZM161.083 10H158.703L156.365 6.584L154.013 10H151.647L155.035 5.212L151.857 0.661999H154.223L156.365 3.854L158.479 0.661999H160.873L157.695 5.198L161.083 10ZM5.082 27H3.08V19.412H0.35V17.662H7.798V19.412H5.082V27ZM12.3064 27.168C10.5798 27.168 9.28244 26.4027 8.41444 24.872L10.1224 24.046C10.3278 24.4473 10.6264 24.774 11.0184 25.026C11.4198 25.278 11.8631 25.404 12.3484 25.404C13.0578 25.404 13.6644 25.1987 14.1684 24.788C14.6724 24.368 15.0038 23.8173 15.1624 23.136H10.6824V21.386H15.1204C14.9431 20.742 14.6071 20.2287 14.1124 19.846C13.6178 19.4633 13.0298 19.272 12.3484 19.272C11.8724 19.272 11.4338 19.4027 11.0324 19.664C10.6311 19.916 10.3278 20.238 10.1224 20.63L8.41444 19.79C9.2731 18.2687 10.5704 17.508 12.3064 17.508C13.7344 17.508 14.9198 17.9607 15.8624 18.866C16.8051 19.762 17.2764 20.9193 17.2764 22.338C17.2764 23.7567 16.8051 24.9187 15.8624 25.824C14.9198 26.72 13.7344 27.168 12.3064 27.168ZM25.2918 27H18.6838V17.662H25.2918V19.412H20.6718V21.386H25.1938V23.136H20.6718V25.25H25.2918V27ZM28.8339 27H26.8459V17.662H33.4539V19.412H28.8339V27ZM38.9261 27.168C37.5168 27.168 36.3501 26.7153 35.4261 25.81C34.5115 24.8953 34.0541 23.738 34.0541 22.338C34.0541 20.938 34.5115 19.7853 35.4261 18.88C36.3501 17.9653 37.5168 17.508 38.9261 17.508C40.3448 17.508 41.5115 17.9607 42.4261 18.866C43.3501 19.7713 43.8121 20.9287 43.8121 22.338C43.8121 23.7473 43.3501 24.9047 42.4261 25.81C41.5115 26.7153 40.3448 27.168 38.9261 27.168ZM36.8681 24.536C37.3908 25.1147 38.0768 25.404 38.9261 25.404C39.7755 25.404 40.4615 25.1147 40.9841 24.536C41.5068 23.9573 41.7681 23.2247 41.7681 22.338C41.7681 21.4513 41.5068 20.7187 40.9841 20.14C40.4615 19.5613 39.7755 19.272 38.9261 19.272C38.0768 19.272 37.3908 19.5613 36.8681 20.14C36.3548 20.7187 36.0981 21.4513 36.0981 22.338C36.0981 23.2247 36.3548 23.9573 36.8681 24.536ZM50.2752 27H45.2072V17.662H50.1212C50.9705 17.662 51.6285 17.8953 52.0952 18.362C52.5712 18.8193 52.8092 19.3793 52.8092 20.042C52.8092 20.6113 52.6552 21.0873 52.3472 21.47C52.0392 21.8527 51.6565 22.0907 51.1992 22.184C51.7032 22.2587 52.1279 22.5153 52.4732 22.954C52.8185 23.3927 52.9912 23.9013 52.9912 24.48C52.9912 25.208 52.7532 25.81 52.2772 26.286C51.8012 26.762 51.1339 27 50.2752 27ZM49.6872 21.4C50.0232 21.4 50.2892 21.3067 50.4852 21.12C50.6812 20.9333 50.7792 20.6907 50.7792 20.392C50.7792 20.0933 50.6765 19.8507 50.4712 19.664C50.2752 19.468 50.0139 19.37 49.6872 19.37H47.1952V21.4H49.6872ZM49.7572 25.278C50.1305 25.278 50.4245 25.1847 50.6392 24.998C50.8539 24.802 50.9612 24.536 50.9612 24.2C50.9612 23.892 50.8539 23.6353 50.6392 23.43C50.4245 23.2153 50.1305 23.108 49.7572 23.108H47.1952V25.278H49.7572ZM63.1404 27H58.0724V17.662H62.9864C63.8358 17.662 64.4938 17.8953 64.9604 18.362C65.4364 18.8193 65.6744 19.3793 65.6744 20.042C65.6744 20.6113 65.5204 21.0873 65.2124 21.47C64.9044 21.8527 64.5218 22.0907 64.0644 22.184C64.5684 22.2587 64.9931 22.5153 65.3384 22.954C65.6838 23.3927 65.8564 23.9013 65.8564 24.48C65.8564 25.208 65.6184 25.81 65.1424 26.286C64.6664 26.762 63.9991 27 63.1404 27ZM62.5524 21.4C62.8884 21.4 63.1544 21.3067 63.3504 21.12C63.5464 20.9333 63.6444 20.6907 63.6444 20.392C63.6444 20.0933 63.5418 19.8507 63.3364 19.664C63.1404 19.468 62.8791 19.37 62.5524 19.37H60.0604V21.4H62.5524ZM62.6224 25.278C62.9958 25.278 63.2898 25.1847 63.5044 24.998C63.7191 24.802 63.8264 24.536 63.8264 24.2C63.8264 23.892 63.7191 23.6353 63.5044 23.43C63.2898 23.2153 62.9958 23.108 62.6224 23.108H60.0604V25.278H62.6224ZM72.9257 27H70.9377V17.662H75.3057C76.2857 17.662 77.051 17.9513 77.6017 18.53C78.1617 19.0993 78.4417 19.8133 78.4417 20.672C78.4417 21.5213 78.1617 22.2353 77.6017 22.814C77.0417 23.3927 76.2763 23.682 75.3057 23.682H72.9257V27ZM75.0397 21.932C75.441 21.932 75.7677 21.82 76.0197 21.596C76.281 21.3627 76.4117 21.0547 76.4117 20.672C76.4117 20.2893 76.281 19.986 76.0197 19.762C75.7677 19.5287 75.441 19.412 75.0397 19.412H72.9257V21.932H75.0397ZM86.282 27H79.674V17.662H86.282V19.412H81.662V21.386H86.184V23.136H81.662V25.25H86.282V27ZM91.0421 27.168C90.2114 27.168 89.4508 27.028 88.7601 26.748C88.0694 26.468 87.5468 26.1087 87.1921 25.67L88.2281 24.34C88.5361 24.6667 88.9468 24.928 89.4601 25.124C89.9828 25.3107 90.4821 25.404 90.9581 25.404C91.5648 25.404 92.0408 25.2967 92.3861 25.082C92.7314 24.858 92.9041 24.5687 92.9041 24.214C92.9041 23.4953 92.2181 23.136 90.8461 23.136H88.9561V21.386H90.8461C91.4248 21.386 91.8868 21.302 92.2321 21.134C92.5774 20.966 92.7501 20.7187 92.7501 20.392C92.7501 20.0373 92.5728 19.7667 92.2181 19.58C91.8634 19.384 91.4061 19.286 90.8461 19.286C89.8288 19.286 88.9841 19.608 88.3121 20.252L87.3181 19.006C87.7101 18.558 88.2281 18.1987 88.8721 17.928C89.5254 17.6573 90.2488 17.522 91.0421 17.522C92.1434 17.522 93.0348 17.7507 93.7161 18.208C94.3974 18.6653 94.7381 19.2813 94.7381 20.056C94.7381 20.616 94.5374 21.0873 94.1361 21.47C93.7348 21.8433 93.2588 22.0813 92.7081 22.184C93.2494 22.24 93.7441 22.4687 94.1921 22.87C94.6494 23.262 94.8781 23.78 94.8781 24.424C94.8781 25.2267 94.5188 25.8847 93.8001 26.398C93.0814 26.9113 92.1621 27.168 91.0421 27.168ZM104.697 27.168C103.418 27.168 102.336 26.79 101.449 26.034C100.562 25.278 100.035 24.2933 99.867 23.08H98.369V27H96.381V17.662H98.369V21.33H99.909C100.124 20.1913 100.665 19.272 101.533 18.572C102.41 17.8627 103.465 17.508 104.697 17.508C106.116 17.508 107.282 17.9607 108.197 18.866C109.112 19.7713 109.569 20.9287 109.569 22.338C109.569 23.7473 109.112 24.9047 108.197 25.81C107.282 26.7153 106.116 27.168 104.697 27.168ZM102.639 24.536C103.162 25.1147 103.848 25.404 104.697 25.404C105.546 25.404 106.232 25.1147 106.755 24.536C107.278 23.9573 107.539 23.2247 107.539 22.338C107.539 21.4513 107.278 20.7187 106.755 20.14C106.232 19.5613 105.546 19.272 104.697 19.272C103.838 19.272 103.148 19.5613 102.625 20.14C102.112 20.7187 101.855 21.4513 101.855 22.338C101.855 23.2247 102.116 23.9573 102.639 24.536ZM121.105 27H119.103V20.462L116.471 27H115.603L112.971 20.462V27H110.983V17.662H113.769L116.037 23.304L118.305 17.662H121.105V27ZM129.567 27H122.959V17.662H129.567V19.412H124.947V21.386H129.469V23.136H124.947V25.25H129.567V27ZM132.787 22.072C132.563 22.296 132.297 22.408 131.989 22.408C131.681 22.408 131.415 22.296 131.191 22.072C130.967 21.848 130.855 21.582 130.855 21.274C130.855 20.966 130.967 20.7 131.191 20.476C131.415 20.252 131.681 20.14 131.989 20.14C132.297 20.14 132.563 20.252 132.787 20.476C133.011 20.7 133.123 20.966 133.123 21.274C133.123 21.582 133.011 21.848 132.787 22.072ZM132.787 26.818C132.563 27.042 132.297 27.154 131.989 27.154C131.681 27.154 131.415 27.042 131.191 26.818C130.967 26.594 130.855 26.328 130.855 26.02C130.855 25.712 130.967 25.446 131.191 25.222C131.415 24.998 131.681 24.886 131.989 24.886C132.297 24.886 132.563 24.998 132.787 25.222C133.011 25.446 133.123 25.712 133.123 26.02C133.123 26.328 133.011 26.594 132.787 26.818Z" fill="black" fill-opacity="0.5"/>
<g opacity="0.4">
<rect x="7" y="63" width="65" height="20" rx="6" fill="#12B1E3"/>
<path fill-rule="evenodd" clip-rule="evenodd" d="M65.4997 76.3497L62.9498 73.7998L60.3999 76.3497L59.55 75.4997L62.0999 72.9498L59.55 70.3999L60.3999 69.5499L62.9498 72.0998L65.4997 69.5499L66.3497 70.3999L63.7998 72.9498L66.3497 75.4997L65.4997 76.3497Z" fill="white"/>
<path d="M21.0196 76.12C20.3396 76.12 19.7963 75.8367 19.3896 75.27V77.84H18.6396V71.17H19.3896V71.89C19.5696 71.6367 19.803 71.4333 20.0896 71.28C20.3763 71.1267 20.6863 71.05 21.0196 71.05C21.6596 71.05 22.1763 71.28 22.5696 71.74C22.9696 72.1933 23.1696 72.8067 23.1696 73.58C23.1696 74.3533 22.9696 74.97 22.5696 75.43C22.1763 75.89 21.6596 76.12 21.0196 76.12ZM20.8296 75.45C21.303 75.45 21.6796 75.2767 21.9596 74.93C22.2396 74.5767 22.3796 74.1267 22.3796 73.58C22.3796 73.0333 22.2396 72.5867 21.9596 72.24C21.6796 71.8933 21.303 71.72 20.8296 71.72C20.543 71.72 20.263 71.7967 19.9896 71.95C19.723 72.0967 19.523 72.2767 19.3896 72.49V74.67C19.523 74.89 19.723 75.0767 19.9896 75.23C20.263 75.3767 20.543 75.45 20.8296 75.45ZM26.5423 76.12C25.8223 76.12 25.2323 75.8867 24.7723 75.42C24.3123 74.9467 24.0823 74.3333 24.0823 73.58C24.0823 72.8733 24.309 72.2767 24.7623 71.79C25.2156 71.2967 25.7823 71.05 26.4623 71.05C27.1756 71.05 27.739 71.2967 28.1523 71.79C28.5723 72.2767 28.7823 72.8933 28.7823 73.64V73.83H24.8723C24.9056 74.3033 25.079 74.7 25.3923 75.02C25.7056 75.34 26.1123 75.5 26.6123 75.5C27.2123 75.5 27.709 75.2967 28.1023 74.89L28.4623 75.38C27.969 75.8733 27.329 76.12 26.5423 76.12ZM28.0423 73.28C28.0356 72.8667 27.8956 72.4967 27.6223 72.17C27.349 71.8367 26.959 71.67 26.4523 71.67C25.9723 71.67 25.5923 71.8333 25.3123 72.16C25.039 72.4867 24.8923 72.86 24.8723 73.28H28.0423ZM31.7071 76.12C30.7804 76.12 30.0537 75.8567 29.5271 75.33L29.8971 74.85C30.3504 75.2833 30.9537 75.5 31.7071 75.5C32.1404 75.5 32.4837 75.4233 32.7371 75.27C32.9971 75.1167 33.1271 74.9133 33.1271 74.66C33.1271 74.1267 32.6204 73.86 31.6071 73.86H30.5271V73.25H31.6071C32.0271 73.25 32.3704 73.1833 32.6371 73.05C32.9037 72.91 33.0371 72.7067 33.0371 72.44C33.0371 72.2133 32.9037 72.03 32.6371 71.89C32.3704 71.7433 32.0337 71.67 31.6271 71.67C30.9537 71.67 30.4137 71.8767 30.0071 72.29L29.6171 71.83C30.1171 71.3167 30.7771 71.06 31.5971 71.06C32.2571 71.0533 32.7904 71.1667 33.1971 71.4C33.6104 71.6267 33.8171 71.9433 33.8171 72.35C33.8171 72.6833 33.6804 72.9533 33.4071 73.16C33.1404 73.3667 32.8437 73.49 32.5171 73.53C32.8571 73.5567 33.1737 73.67 33.4671 73.87C33.7671 74.07 33.9171 74.35 33.9171 74.71C33.9171 75.1233 33.7171 75.4633 33.3171 75.73C32.9237 75.99 32.3871 76.12 31.7071 76.12ZM39.1838 76.12C38.5171 76.12 37.9671 75.9067 37.5338 75.48C37.1071 75.0467 36.8671 74.5 36.8138 73.84H35.8838V76H35.1338V71.17H35.8838V73.18H36.8238C36.9038 72.56 37.1538 72.05 37.5738 71.65C38.0005 71.25 38.5371 71.05 39.1838 71.05C39.9038 71.05 40.4838 71.2933 40.9238 71.78C41.3638 72.26 41.5838 72.86 41.5838 73.58C41.5838 74.3 41.3638 74.9033 40.9238 75.39C40.4838 75.8767 39.9038 76.12 39.1838 76.12ZM39.1838 75.45C39.6838 75.45 40.0771 75.27 40.3638 74.91C40.6505 74.5433 40.7938 74.1 40.7938 73.58C40.7938 73.06 40.6505 72.62 40.3638 72.26C40.0771 71.9 39.6838 71.72 39.1838 71.72C38.6971 71.72 38.3071 71.9033 38.0138 72.27C37.7271 72.63 37.5838 73.0667 37.5838 73.58C37.5838 74.1 37.7271 74.5433 38.0138 74.91C38.3005 75.27 38.6905 75.45 39.1838 75.45ZM47.7298 76H46.9798V72.21L45.4098 76H45.1298L43.5498 72.21V76H42.7998V71.17H43.7898L45.2698 74.75L46.7298 71.17H47.7298V76ZM51.4056 76.12C50.6856 76.12 50.0956 75.8867 49.6356 75.42C49.1756 74.9467 48.9456 74.3333 48.9456 73.58C48.9456 72.8733 49.1723 72.2767 49.6256 71.79C50.0789 71.2967 50.6456 71.05 51.3256 71.05C52.0389 71.05 52.6023 71.2967 53.0156 71.79C53.4356 72.2767 53.6456 72.8933 53.6456 73.64V73.83H49.7356C49.7689 74.3033 49.9423 74.7 50.2556 75.02C50.5689 75.34 50.9756 75.5 51.4756 75.5C52.0756 75.5 52.5723 75.2967 52.9656 74.89L53.3256 75.38C52.8323 75.8733 52.1923 76.12 51.4056 76.12ZM52.9056 73.28C52.8989 72.8667 52.7589 72.4967 52.4856 72.17C52.2123 71.8367 51.8223 71.67 51.3156 71.67C50.8356 71.67 50.4556 71.8333 50.1756 72.16C49.9023 72.4867 49.7556 72.86 49.7356 73.28H52.9056Z" fill="white"/>
</g>
<g opacity="0.8">
<rect x="71" y="40" width="104" height="20" rx="6" fill="#B1231F"/>
<path d="M81.8179 53.12C80.7379 53.12 79.8846 52.7667 79.2579 52.06L79.7479 51.43C80.3146 52.0633 81.0146 52.38 81.8479 52.38C82.3879 52.38 82.7846 52.2667 83.0379 52.04C83.2913 51.8067 83.4179 51.5367 83.4179 51.23C83.4179 50.9967 83.3446 50.8 83.1979 50.64C83.0513 50.48 82.8613 50.3567 82.6279 50.27C82.4013 50.1767 82.1446 50.0933 81.8579 50.02C81.5779 49.9467 81.2979 49.8667 81.0179 49.78C80.7379 49.6867 80.4813 49.5767 80.2479 49.45C80.0213 49.3233 79.8346 49.1433 79.6879 48.91C79.5413 48.6767 79.4679 48.4 79.4679 48.08C79.4679 47.5333 79.6846 47.09 80.1179 46.75C80.5513 46.4033 81.0979 46.23 81.7579 46.23C82.7513 46.23 83.5413 46.54 84.1279 47.16L83.6279 47.77C83.1413 47.2367 82.4979 46.97 81.6979 46.97C81.2979 46.97 80.9679 47.07 80.7079 47.27C80.4546 47.4633 80.3279 47.7167 80.3279 48.03C80.3279 48.2633 80.4246 48.4567 80.6179 48.61C80.8179 48.7633 81.0613 48.8767 81.3479 48.95C81.6413 49.0233 81.9579 49.1167 82.2979 49.23C82.6446 49.3367 82.9613 49.4533 83.2479 49.58C83.5413 49.7 83.7846 49.8967 83.9779 50.17C84.1779 50.4433 84.2779 50.7733 84.2779 51.16C84.2779 51.7067 84.0746 52.17 83.6679 52.55C83.2679 52.93 82.6513 53.12 81.8179 53.12ZM87.8673 53.12C87.1873 53.12 86.644 52.8367 86.2373 52.27V54.84H85.4873V48.17H86.2373V48.89C86.4173 48.6367 86.6506 48.4333 86.9373 48.28C87.224 48.1267 87.534 48.05 87.8673 48.05C88.5073 48.05 89.024 48.28 89.4173 48.74C89.8173 49.1933 90.0173 49.8067 90.0173 50.58C90.0173 51.3533 89.8173 51.97 89.4173 52.43C89.024 52.89 88.5073 53.12 87.8673 53.12ZM87.6773 52.45C88.1506 52.45 88.5273 52.2767 88.8073 51.93C89.0873 51.5767 89.2273 51.1267 89.2273 50.58C89.2273 50.0333 89.0873 49.5867 88.8073 49.24C88.5273 48.8933 88.1506 48.72 87.6773 48.72C87.3906 48.72 87.1106 48.7967 86.8373 48.95C86.5706 49.0967 86.3706 49.2767 86.2373 49.49V51.67C86.3706 51.89 86.5706 52.0767 86.8373 52.23C87.1106 52.3767 87.3906 52.45 87.6773 52.45ZM91.96 53H91.21V48.17H91.96V48.95C92.4066 48.3633 92.9433 48.07 93.57 48.07V48.84C93.4766 48.82 93.3766 48.81 93.27 48.81C93.0433 48.81 92.7966 48.89 92.53 49.05C92.2633 49.21 92.0733 49.3867 91.96 49.58V53ZM94.8807 47.48C94.7474 47.48 94.6307 47.4333 94.5307 47.34C94.4307 47.24 94.3807 47.12 94.3807 46.98C94.3807 46.84 94.4307 46.72 94.5307 46.62C94.6307 46.52 94.7474 46.47 94.8807 46.47C95.0207 46.47 95.1407 46.52 95.2407 46.62C95.3407 46.72 95.3907 46.84 95.3907 46.98C95.3907 47.12 95.3407 47.24 95.2407 47.34C95.1407 47.4333 95.0207 47.48 94.8807 47.48ZM95.2607 53H94.5107V48.17H95.2607V53ZM100.767 53H100.017V49.84C100.017 49.4333 99.9235 49.1467 99.7368 48.98C99.5502 48.8067 99.2835 48.72 98.9368 48.72C98.6568 48.72 98.3835 48.7933 98.1168 48.94C97.8568 49.0867 97.6535 49.2633 97.5068 49.47V53H96.7568V48.17H97.5068V48.87C97.6935 48.65 97.9435 48.46 98.2568 48.3C98.5702 48.1333 98.8935 48.05 99.2268 48.05C100.254 48.05 100.767 48.57 100.767 49.61V53ZM104.205 54.96C103.778 54.96 103.415 54.9067 103.115 54.8C102.815 54.7 102.528 54.5133 102.255 54.24L102.635 53.68C103.001 54.12 103.525 54.34 104.205 54.34C104.651 54.34 105.021 54.22 105.315 53.98C105.608 53.7467 105.755 53.3833 105.755 52.89V52.2C105.575 52.4533 105.341 52.66 105.055 52.82C104.768 52.98 104.461 53.06 104.135 53.06C103.495 53.06 102.975 52.8367 102.575 52.39C102.181 51.9367 101.985 51.3267 101.985 50.56C101.985 49.7933 102.181 49.1833 102.575 48.73C102.975 48.2767 103.495 48.05 104.135 48.05C104.795 48.05 105.335 48.3333 105.755 48.9V48.17H106.505V52.86C106.505 53.6 106.288 54.1333 105.855 54.46C105.421 54.7933 104.871 54.96 104.205 54.96ZM104.315 52.4C104.601 52.4 104.878 52.3233 105.145 52.17C105.418 52.0167 105.621 51.83 105.755 51.61V49.5C105.621 49.28 105.421 49.0967 105.155 48.95C104.888 48.7967 104.608 48.72 104.315 48.72C103.835 48.72 103.455 48.89 103.175 49.23C102.901 49.57 102.765 50.0133 102.765 50.56C102.765 51.1 102.905 51.5433 103.185 51.89C103.465 52.23 103.841 52.4 104.315 52.4ZM111.445 53H110.615V46.33H114.985V47.07H111.445V49.22H114.915V49.96H111.445V53ZM116.833 53H116.083V48.17H116.833V48.95C117.28 48.3633 117.816 48.07 118.443 48.07V48.84C118.35 48.82 118.25 48.81 118.143 48.81C117.916 48.81 117.67 48.89 117.403 49.05C117.136 49.21 116.946 49.3867 116.833 49.58V53ZM123.154 53H122.404V52.45C121.997 52.8967 121.464 53.12 120.804 53.12C120.357 53.12 119.964 52.9767 119.624 52.69C119.284 52.4033 119.114 52.0133 119.114 51.52C119.114 51.0133 119.28 50.6233 119.614 50.35C119.954 50.07 120.35 49.93 120.804 49.93C121.49 49.93 122.024 50.15 122.404 50.59V49.72C122.404 49.4 122.29 49.15 122.064 48.97C121.837 48.79 121.544 48.7 121.184 48.7C120.617 48.7 120.124 48.9233 119.704 49.37L119.354 48.85C119.867 48.3167 120.51 48.05 121.284 48.05C121.837 48.05 122.287 48.1833 122.634 48.45C122.98 48.7167 123.154 49.1267 123.154 49.68V53ZM121.074 52.58C121.674 52.58 122.117 52.38 122.404 51.98V51.07C122.117 50.67 121.674 50.47 121.074 50.47C120.727 50.47 120.44 50.57 120.214 50.77C119.994 50.9633 119.884 51.2167 119.884 51.53C119.884 51.8367 119.994 52.09 120.214 52.29C120.44 52.4833 120.727 52.58 121.074 52.58ZM131.237 53H130.487V49.72C130.487 49.0533 130.191 48.72 129.597 48.72C129.357 48.72 129.117 48.7933 128.877 48.94C128.637 49.0867 128.451 49.26 128.317 49.46V53H127.567V49.72C127.567 49.0533 127.271 48.72 126.677 48.72C126.444 48.72 126.207 48.7933 125.967 48.94C125.734 49.0867 125.547 49.2633 125.407 49.47V53H124.657V48.17H125.407V48.87C125.527 48.6833 125.737 48.5 126.037 48.32C126.337 48.14 126.647 48.05 126.967 48.05C127.321 48.05 127.607 48.1333 127.827 48.3C128.047 48.4667 128.194 48.6833 128.267 48.95C128.414 48.71 128.637 48.5 128.937 48.32C129.237 48.14 129.554 48.05 129.887 48.05C130.787 48.05 131.237 48.5367 131.237 49.51V53ZM134.913 53.12C134.193 53.12 133.603 52.8867 133.143 52.42C132.683 51.9467 132.453 51.3333 132.453 50.58C132.453 49.8733 132.68 49.2767 133.133 48.79C133.587 48.2967 134.153 48.05 134.833 48.05C135.547 48.05 136.11 48.2967 136.523 48.79C136.943 49.2767 137.153 49.8933 137.153 50.64V50.83H133.243C133.277 51.3033 133.45 51.7 133.763 52.02C134.077 52.34 134.483 52.5 134.983 52.5C135.583 52.5 136.08 52.2967 136.473 51.89L136.833 52.38C136.34 52.8733 135.7 53.12 134.913 53.12ZM136.413 50.28C136.407 49.8667 136.267 49.4967 135.993 49.17C135.72 48.8367 135.33 48.67 134.823 48.67C134.343 48.67 133.963 48.8333 133.683 49.16C133.41 49.4867 133.263 49.86 133.243 50.28H136.413ZM143.298 53H142.548L141.288 49.12L140.028 53H139.278L137.738 48.17H138.518L139.698 52.02L140.968 48.17H141.608L142.878 52.02L144.058 48.17H144.838L143.298 53ZM149.552 52.39C149.119 52.8767 148.542 53.12 147.822 53.12C147.102 53.12 146.522 52.8767 146.082 52.39C145.649 51.9033 145.432 51.3 145.432 50.58C145.432 49.86 145.649 49.26 146.082 48.78C146.522 48.2933 147.102 48.05 147.822 48.05C148.542 48.05 149.119 48.2933 149.552 48.78C149.992 49.26 150.212 49.86 150.212 50.58C150.212 51.3 149.992 51.9033 149.552 52.39ZM146.642 51.91C146.935 52.27 147.329 52.45 147.822 52.45C148.315 52.45 148.705 52.27 148.992 51.91C149.279 51.5433 149.422 51.1 149.422 50.58C149.422 50.06 149.279 49.62 148.992 49.26C148.705 48.9 148.315 48.72 147.822 48.72C147.329 48.72 146.935 48.9033 146.642 49.27C146.355 49.63 146.212 50.0667 146.212 50.58C146.212 51.1 146.355 51.5433 146.642 51.91ZM152.185 53H151.435V48.17H152.185V48.95C152.631 48.3633 153.168 48.07 153.795 48.07V48.84C153.701 48.82 153.601 48.81 153.495 48.81C153.268 48.81 153.021 48.89 152.755 49.05C152.488 49.21 152.298 49.3867 152.185 49.58V53ZM158.985 53H158.025L156.285 50.83L155.485 51.62V53H154.735V46.33H155.485V50.74L158.025 48.17H158.975L156.835 50.36L158.985 53Z" fill="white"/>
<path fill-rule="evenodd" clip-rule="evenodd" d="M169.5 53.3497L166.95 50.7998L164.4 53.3497L163.55 52.4997L166.1 49.9498L163.55 47.3999L164.4 46.5499L166.95 49.0998L169.5 46.5499L170.35 47.3999L167.8 49.9498L170.35 52.4997L169.5 53.3497Z" fill="white"/>
</g>
<g opacity="0.15">
<rect x="83" y="88" width="93" height="20" rx="6" fill="#04A3D6"/>
<path d="M92.6427 101.12C91.9294 101.12 91.3494 100.88 90.9027 100.4C90.456 99.9133 90.2327 99.3067 90.2327 98.58C90.2327 97.8533 90.456 97.25 90.9027 96.77C91.3494 96.29 91.9294 96.05 92.6427 96.05C93.3894 96.05 93.9794 96.33 94.4127 96.89L93.9127 97.35C93.606 96.93 93.196 96.72 92.6827 96.72C92.176 96.72 91.7694 96.8933 91.4627 97.24C91.1627 97.5867 91.0127 98.0333 91.0127 98.58C91.0127 99.1267 91.1627 99.5767 91.4627 99.93C91.7694 100.277 92.176 100.45 92.6827 100.45C93.1894 100.45 93.5994 100.24 93.9127 99.82L94.4127 100.28C93.9794 100.84 93.3894 101.12 92.6427 101.12ZM99.3039 100.39C98.8705 100.877 98.2939 101.12 97.5739 101.12C96.8539 101.12 96.2739 100.877 95.8339 100.39C95.4005 99.9033 95.1839 99.3 95.1839 98.58C95.1839 97.86 95.4005 97.26 95.8339 96.78C96.2739 96.2933 96.8539 96.05 97.5739 96.05C98.2939 96.05 98.8705 96.2933 99.3039 96.78C99.7439 97.26 99.9639 97.86 99.9639 98.58C99.9639 99.3 99.7439 99.9033 99.3039 100.39ZM96.3939 99.91C96.6872 100.27 97.0805 100.45 97.5739 100.45C98.0672 100.45 98.4572 100.27 98.7439 99.91C99.0305 99.5433 99.1739 99.1 99.1739 98.58C99.1739 98.06 99.0305 97.62 98.7439 97.26C98.4572 96.9 98.0672 96.72 97.5739 96.72C97.0805 96.72 96.6872 96.9033 96.3939 97.27C96.1072 97.63 95.9639 98.0667 95.9639 98.58C95.9639 99.1 96.1072 99.5433 96.3939 99.91ZM102.117 99.91C102.41 100.27 102.803 100.45 103.297 100.45C103.79 100.45 104.18 100.27 104.467 99.91C104.753 99.5433 104.897 99.0967 104.897 98.57C104.897 98.0567 104.753 97.62 104.467 97.26C104.18 96.9 103.79 96.72 103.297 96.72C102.803 96.72 102.41 96.9 102.117 97.26C101.83 97.62 101.687 98.0567 101.687 98.57C101.687 99.0967 101.83 99.5433 102.117 99.91ZM103.297 101.12C102.57 101.12 101.99 100.863 101.557 100.35C101.123 99.8367 100.907 99.1733 100.907 98.36C100.907 97.2133 101.113 96.3667 101.527 95.82C101.94 95.2667 102.577 94.9333 103.437 94.82C103.95 94.74 104.303 94.6633 104.497 94.59C104.697 94.5167 104.797 94.43 104.797 94.33H105.527C105.527 94.5167 105.47 94.68 105.357 94.82C105.243 94.9533 105.08 95.06 104.867 95.14C104.66 95.22 104.463 95.2833 104.277 95.33C104.097 95.37 103.88 95.4067 103.627 95.44C102.96 95.5333 102.477 95.7167 102.177 95.99C101.883 96.2633 101.69 96.6267 101.597 97.08C102.037 96.3933 102.643 96.05 103.417 96.05C104.083 96.05 104.627 96.2933 105.047 96.78C105.467 97.2667 105.677 97.8633 105.677 98.57C105.677 99.29 105.46 99.8967 105.027 100.39C104.593 100.877 104.017 101.12 103.297 101.12ZM109.138 101.12C108.418 101.12 107.828 100.887 107.368 100.42C106.908 99.9467 106.678 99.3333 106.678 98.58C106.678 97.8733 106.905 97.2767 107.358 96.79C107.811 96.2967 108.378 96.05 109.058 96.05C109.771 96.05 110.335 96.2967 110.748 96.79C111.168 97.2767 111.378 97.8933 111.378 98.64V98.83H107.468C107.501 99.3033 107.675 99.7 107.988 100.02C108.301 100.34 108.708 100.5 109.208 100.5C109.808 100.5 110.305 100.297 110.698 99.89L111.058 100.38C110.565 100.873 109.925 101.12 109.138 101.12ZM110.638 98.28C110.631 97.8667 110.491 97.4967 110.218 97.17C109.945 96.8367 109.555 96.67 109.048 96.67C108.568 96.67 108.188 96.8333 107.908 97.16C107.635 97.4867 107.488 97.86 107.468 98.28H110.638ZM114.723 101.12C114.009 101.12 113.429 100.88 112.983 100.4C112.536 99.9133 112.313 99.3067 112.313 98.58C112.313 97.8533 112.536 97.25 112.983 96.77C113.429 96.29 114.009 96.05 114.723 96.05C115.469 96.05 116.059 96.33 116.493 96.89L115.993 97.35C115.686 96.93 115.276 96.72 114.763 96.72C114.256 96.72 113.849 96.8933 113.543 97.24C113.243 97.5867 113.093 98.0333 113.093 98.58C113.093 99.1267 113.243 99.5767 113.543 99.93C113.849 100.277 114.256 100.45 114.763 100.45C115.269 100.45 115.679 100.24 115.993 99.82L116.493 100.28C116.059 100.84 115.469 101.12 114.723 101.12ZM119.724 101.12C119.004 101.12 118.414 100.887 117.954 100.42C117.494 99.9467 117.264 99.3333 117.264 98.58C117.264 97.8733 117.491 97.2767 117.944 96.79C118.397 96.2967 118.964 96.05 119.644 96.05C120.357 96.05 120.921 96.2967 121.334 96.79C121.754 97.2767 121.964 97.8933 121.964 98.64V98.83H118.054C118.087 99.3033 118.261 99.7 118.574 100.02C118.887 100.34 119.294 100.5 119.794 100.5C120.394 100.5 120.891 100.297 121.284 99.89L121.644 100.38C121.151 100.873 120.511 101.12 119.724 101.12ZM121.224 98.28C121.217 97.8667 121.077 97.4967 120.804 97.17C120.531 96.8367 120.141 96.67 119.634 96.67C119.154 96.67 118.774 96.8333 118.494 97.16C118.221 97.4867 118.074 97.86 118.054 98.28H121.224ZM122.609 102.23V100.38C122.855 100.333 123.049 100.187 123.189 99.94C123.329 99.6867 123.442 99.2233 123.529 98.55L123.839 96.17H127.199V100.34H127.759V102.23H127.009V101H123.359V102.23H122.609ZM124.499 96.83L124.279 98.64C124.165 99.4867 123.932 100.053 123.579 100.34H126.449V96.83H124.499ZM132.624 100.39C132.191 100.877 131.614 101.12 130.894 101.12C130.174 101.12 129.594 100.877 129.154 100.39C128.721 99.9033 128.504 99.3 128.504 98.58C128.504 97.86 128.721 97.26 129.154 96.78C129.594 96.2933 130.174 96.05 130.894 96.05C131.614 96.05 132.191 96.2933 132.624 96.78C133.064 97.26 133.284 97.86 133.284 98.58C133.284 99.3 133.064 99.9033 132.624 100.39ZM129.714 99.91C130.008 100.27 130.401 100.45 130.894 100.45C131.388 100.45 131.778 100.27 132.064 99.91C132.351 99.5433 132.494 99.1 132.494 98.58C132.494 98.06 132.351 97.62 132.064 97.26C131.778 96.9 131.388 96.72 130.894 96.72C130.401 96.72 130.008 96.9033 129.714 97.27C129.428 97.63 129.284 98.0667 129.284 98.58C129.284 99.1 129.428 99.5433 129.714 99.91ZM137.217 101H134.507V96.17H137.167C137.587 96.17 137.917 96.2833 138.157 96.51C138.404 96.7367 138.527 97.0367 138.527 97.41C138.527 97.6833 138.45 97.92 138.297 98.12C138.15 98.3133 137.967 98.4433 137.747 98.51C137.994 98.57 138.2 98.7133 138.367 98.94C138.54 99.1667 138.627 99.4167 138.627 99.69C138.627 100.083 138.5 100.4 138.247 100.64C138 100.88 137.657 101 137.217 101ZM137.067 100.34C137.307 100.34 137.497 100.273 137.637 100.14C137.777 100.007 137.847 99.8267 137.847 99.6C137.847 99.3933 137.777 99.2167 137.637 99.07C137.497 98.9233 137.307 98.85 137.067 98.85H135.257V100.34H137.067ZM137.037 98.19C137.264 98.19 137.44 98.13 137.567 98.01C137.694 97.8833 137.757 97.72 137.757 97.52C137.757 97.3067 137.694 97.14 137.567 97.02C137.44 96.8933 137.264 96.83 137.037 96.83H135.257V98.19H137.037ZM143.814 101H143.064V100.45C142.657 100.897 142.124 101.12 141.464 101.12C141.017 101.12 140.624 100.977 140.284 100.69C139.944 100.403 139.774 100.013 139.774 99.52C139.774 99.0133 139.941 98.6233 140.274 98.35C140.614 98.07 141.011 97.93 141.464 97.93C142.151 97.93 142.684 98.15 143.064 98.59V97.72C143.064 97.4 142.951 97.15 142.724 96.97C142.497 96.79 142.204 96.7 141.844 96.7C141.277 96.7 140.784 96.9233 140.364 97.37L140.014 96.85C140.527 96.3167 141.171 96.05 141.944 96.05C142.497 96.05 142.947 96.1833 143.294 96.45C143.641 96.7167 143.814 97.1267 143.814 97.68V101ZM141.734 100.58C142.334 100.58 142.777 100.38 143.064 99.98V99.07C142.777 98.67 142.334 98.47 141.734 98.47C141.387 98.47 141.101 98.57 140.874 98.77C140.654 98.9633 140.544 99.2167 140.544 99.53C140.544 99.8367 140.654 100.09 140.874 100.29C141.101 100.483 141.387 100.58 141.734 100.58ZM146.067 101H145.317V96.17H146.067V98.18H148.587V96.17H149.337V101H148.587V98.84H146.067V101ZM151.555 101H150.835V96.17H151.585V99.86L154.115 96.17H154.855V101H154.105V97.24L151.555 101ZM158.533 101.12C157.813 101.12 157.223 100.887 156.763 100.42C156.303 99.9467 156.073 99.3333 156.073 98.58C156.073 97.8733 156.299 97.2767 156.753 96.79C157.206 96.2967 157.773 96.05 158.453 96.05C159.166 96.05 159.729 96.2967 160.143 96.79C160.563 97.2767 160.773 97.8933 160.773 98.64V98.83H156.863C156.896 99.3033 157.069 99.7 157.383 100.02C157.696 100.34 158.103 100.5 158.603 100.5C159.203 100.5 159.699 100.297 160.093 99.89L160.453 100.38C159.959 100.873 159.319 101.12 158.533 101.12ZM160.033 98.28C160.026 97.8667 159.886 97.4967 159.613 97.17C159.339 96.8367 158.949 96.67 158.443 96.67C157.963 96.67 157.583 96.8333 157.303 97.16C157.029 97.4867 156.883 97.86 156.863 98.28H160.033Z" fill="white"/>
<path fill-rule="evenodd" clip-rule="evenodd" d="M171.5 101.35L168.95 98.7998L166.4 101.35L165.55 100.5L168.1 97.9498L165.55 95.3999L166.4 94.5499L168.95 97.0998L171.5 94.5499L172.35 95.3999L169.8 97.9498L172.35 100.5L171.5 101.35Z" fill="white"/>
</g>
<rect x="107" y="57" width="144.9" height="23" rx="6" fill="#5A8FCC"/>
<path d="M125.607 70.6001H124.857V66.4301H123.457V65.7701H127.017V66.4301H125.607V70.6001ZM130.18 70.7201C129.46 70.7201 128.87 70.4868 128.41 70.0201C127.95 69.5468 127.72 68.9334 127.72 68.1801C127.72 67.4734 127.947 66.8768 128.4 66.3901C128.853 65.8968 129.42 65.6501 130.1 65.6501C130.813 65.6501 131.377 65.8968 131.79 66.3901C132.21 66.8768 132.42 67.4934 132.42 68.2401V68.4301H128.51C128.543 68.9034 128.717 69.3001 129.03 69.6201C129.343 69.9401 129.75 70.1001 130.25 70.1001C130.85 70.1001 131.347 69.8968 131.74 69.4901L132.1 69.9801C131.607 70.4734 130.967 70.7201 130.18 70.7201ZM131.68 67.8801C131.673 67.4668 131.533 67.0968 131.26 66.7701C130.987 66.4368 130.597 66.2701 130.09 66.2701C129.61 66.2701 129.23 66.4334 128.95 66.7601C128.677 67.0868 128.53 67.4601 128.51 67.8801H131.68ZM135.765 70.7201C135.051 70.7201 134.471 70.4801 134.025 70.0001C133.578 69.5134 133.355 68.9068 133.355 68.1801C133.355 67.4534 133.578 66.8501 134.025 66.3701C134.471 65.8901 135.051 65.6501 135.765 65.6501C136.511 65.6501 137.101 65.9301 137.535 66.4901L137.035 66.9501C136.728 66.5301 136.318 66.3201 135.805 66.3201C135.298 66.3201 134.891 66.4934 134.585 66.8401C134.285 67.1868 134.135 67.6334 134.135 68.1801C134.135 68.7268 134.285 69.1768 134.585 69.5301C134.891 69.8768 135.298 70.0501 135.805 70.0501C136.311 70.0501 136.721 69.8401 137.035 69.4201L137.535 69.8801C137.101 70.4401 136.511 70.7201 135.765 70.7201ZM140.216 70.6001H139.466V66.4301H138.066V65.7701H141.626V66.4301H140.216V70.6001ZM143.329 70.6001H142.609V65.7701H143.359V69.4601L145.889 65.7701H146.629V70.6001H145.879V66.8401L143.329 70.6001ZM150.507 70.7201C149.827 70.7201 149.284 70.4368 148.877 69.8701V72.4401H148.127V65.7701H148.877V66.4901C149.057 66.2368 149.29 66.0334 149.577 65.8801C149.864 65.7268 150.174 65.6501 150.507 65.6501C151.147 65.6501 151.664 65.8801 152.057 66.3401C152.457 66.7934 152.657 67.4068 152.657 68.1801C152.657 68.9534 152.457 69.5701 152.057 70.0301C151.664 70.4901 151.147 70.7201 150.507 70.7201ZM150.317 70.0501C150.79 70.0501 151.167 69.8768 151.447 69.5301C151.727 69.1768 151.867 68.7268 151.867 68.1801C151.867 67.6334 151.727 67.1868 151.447 66.8401C151.167 66.4934 150.79 66.3201 150.317 66.3201C150.03 66.3201 149.75 66.3968 149.477 66.5501C149.21 66.6968 149.01 66.8768 148.877 67.0901V69.2701C149.01 69.4901 149.21 69.6768 149.477 69.8301C149.75 69.9768 150.03 70.0501 150.317 70.0501ZM157.69 69.9901C157.256 70.4768 156.68 70.7201 155.96 70.7201C155.24 70.7201 154.66 70.4768 154.22 69.9901C153.786 69.5034 153.57 68.9001 153.57 68.1801C153.57 67.4601 153.786 66.8601 154.22 66.3801C154.66 65.8934 155.24 65.6501 155.96 65.6501C156.68 65.6501 157.256 65.8934 157.69 66.3801C158.13 66.8601 158.35 67.4601 158.35 68.1801C158.35 68.9001 158.13 69.5034 157.69 69.9901ZM154.78 69.5101C155.073 69.8701 155.466 70.0501 155.96 70.0501C156.453 70.0501 156.843 69.8701 157.13 69.5101C157.416 69.1434 157.56 68.7001 157.56 68.1801C157.56 67.6601 157.416 67.2201 157.13 66.8601C156.843 66.5001 156.453 66.3201 155.96 66.3201C155.466 66.3201 155.073 66.5034 154.78 66.8701C154.493 67.2301 154.35 67.6668 154.35 68.1801C154.35 68.7001 154.493 69.1434 154.78 69.5101ZM162.282 70.6001H159.572V65.7701H162.232C162.652 65.7701 162.982 65.8834 163.222 66.1101C163.469 66.3368 163.592 66.6368 163.592 67.0101C163.592 67.2834 163.516 67.5201 163.362 67.7201C163.216 67.9134 163.032 68.0434 162.812 68.1101C163.059 68.1701 163.266 68.3134 163.432 68.5401C163.606 68.7668 163.692 69.0168 163.692 69.2901C163.692 69.6834 163.566 70.0001 163.312 70.2401C163.066 70.4801 162.722 70.6001 162.282 70.6001ZM162.132 69.9401C162.372 69.9401 162.562 69.8734 162.702 69.7401C162.842 69.6068 162.912 69.4268 162.912 69.2001C162.912 68.9934 162.842 68.8168 162.702 68.6701C162.562 68.5234 162.372 68.4501 162.132 68.4501H160.322V69.9401H162.132ZM162.102 67.7901C162.329 67.7901 162.506 67.7301 162.632 67.6101C162.759 67.4834 162.822 67.3201 162.822 67.1201C162.822 66.9068 162.759 66.7401 162.632 66.6201C162.506 66.4934 162.329 66.4301 162.102 66.4301H160.322V67.7901H162.102ZM168.879 70.6001H168.129V70.0501C167.723 70.4968 167.189 70.7201 166.529 70.7201C166.083 70.7201 165.689 70.5768 165.349 70.2901C165.009 70.0034 164.839 69.6134 164.839 69.1201C164.839 68.6134 165.006 68.2234 165.339 67.9501C165.679 67.6701 166.076 67.5301 166.529 67.5301C167.216 67.5301 167.749 67.7501 168.129 68.1901V67.3201C168.129 67.0001 168.016 66.7501 167.789 66.5701C167.563 66.3901 167.269 66.3001 166.909 66.3001C166.343 66.3001 165.849 66.5234 165.429 66.9701L165.079 66.4501C165.593 65.9168 166.236 65.6501 167.009 65.6501C167.563 65.6501 168.013 65.7834 168.359 66.0501C168.706 66.3168 168.879 66.7268 168.879 67.2801V70.6001ZM166.799 70.1801C167.399 70.1801 167.843 69.9801 168.129 69.5801V68.6701C167.843 68.2701 167.399 68.0701 166.799 68.0701C166.453 68.0701 166.166 68.1701 165.939 68.3701C165.719 68.5634 165.609 68.8168 165.609 69.1301C165.609 69.4368 165.719 69.6901 165.939 69.8901C166.166 70.0834 166.453 70.1801 166.799 70.1801ZM171.133 70.6001H170.383V65.7701H171.133V67.7801H173.653V65.7701H174.403V70.6001H173.653V68.4401H171.133V70.6001ZM176.62 70.6001H175.9V65.7701H176.65V69.4601L179.18 65.7701H179.92V70.6001H179.17V66.8401L176.62 70.6001ZM183.598 70.7201C182.878 70.7201 182.288 70.4868 181.828 70.0201C181.368 69.5468 181.138 68.9334 181.138 68.1801C181.138 67.4734 181.365 66.8768 181.818 66.3901C182.271 65.8968 182.838 65.6501 183.518 65.6501C184.231 65.6501 184.795 65.8968 185.208 66.3901C185.628 66.8768 185.838 67.4934 185.838 68.2401V68.4301H181.928C181.961 68.9034 182.135 69.3001 182.448 69.6201C182.761 69.9401 183.168 70.1001 183.668 70.1001C184.268 70.1001 184.765 69.8968 185.158 69.4901L185.518 69.9801C185.025 70.4734 184.385 70.7201 183.598 70.7201ZM185.098 67.8801C185.091 67.4668 184.951 67.0968 184.678 66.7701C184.405 66.4368 184.015 66.2701 183.508 66.2701C183.028 66.2701 182.648 66.4334 182.368 66.7601C182.095 67.0868 181.948 67.4601 181.928 67.8801H185.098ZM191.161 70.7201C190.341 70.7201 189.691 70.4668 189.211 69.9601L189.601 69.4201C189.768 69.6134 189.994 69.7768 190.281 69.9101C190.574 70.0434 190.878 70.1101 191.191 70.1101C191.551 70.1101 191.831 70.0334 192.031 69.8801C192.231 69.7268 192.331 69.5268 192.331 69.2801C192.331 69.0668 192.228 68.9001 192.021 68.7801C191.814 68.6534 191.564 68.5601 191.271 68.5001C190.984 68.4334 190.694 68.3601 190.401 68.2801C190.108 68.1934 189.858 68.0501 189.651 67.8501C189.444 67.6434 189.341 67.3734 189.341 67.0401C189.341 66.6468 189.501 66.3168 189.821 66.0501C190.148 65.7834 190.588 65.6501 191.141 65.6501C191.868 65.6501 192.464 65.8834 192.931 66.3501L192.581 66.8701C192.241 66.4634 191.761 66.2601 191.141 66.2601C190.814 66.2601 190.554 66.3334 190.361 66.4801C190.168 66.6201 190.071 66.8001 190.071 67.0201C190.071 67.2134 190.174 67.3668 190.381 67.4801C190.588 67.5868 190.834 67.6734 191.121 67.7401C191.414 67.8001 191.708 67.8734 192.001 67.9601C192.294 68.0468 192.544 68.2001 192.751 68.4201C192.958 68.6334 193.061 68.9134 193.061 69.2601C193.061 69.6868 192.894 70.0368 192.561 70.3101C192.228 70.5834 191.761 70.7201 191.161 70.7201ZM198.119 69.9901C197.686 70.4768 197.109 70.7201 196.389 70.7201C195.669 70.7201 195.089 70.4768 194.649 69.9901C194.216 69.5034 193.999 68.9001 193.999 68.1801C193.999 67.4601 194.216 66.8601 194.649 66.3801C195.089 65.8934 195.669 65.6501 196.389 65.6501C197.109 65.6501 197.686 65.8934 198.119 66.3801C198.559 66.8601 198.779 67.4601 198.779 68.1801C198.779 68.9001 198.559 69.5034 198.119 69.9901ZM195.209 69.5101C195.503 69.8701 195.896 70.0501 196.389 70.0501C196.883 70.0501 197.273 69.8701 197.559 69.5101C197.846 69.1434 197.989 68.7001 197.989 68.1801C197.989 67.6601 197.846 67.2201 197.559 66.8601C197.273 66.5001 196.883 66.3201 196.389 66.3201C195.896 66.3201 195.503 66.5034 195.209 66.8701C194.923 67.2301 194.779 67.6668 194.779 68.1801C194.779 68.7001 194.923 69.1434 195.209 69.5101ZM200.962 70.6001H200.212V66.4301H199.412V65.7701H200.212V65.4001C200.212 64.9068 200.335 64.5234 200.582 64.2501C200.835 63.9701 201.179 63.8301 201.612 63.8301C202.025 63.8301 202.365 63.9534 202.632 64.2001L202.322 64.6901C202.142 64.5301 201.942 64.4501 201.722 64.4501C201.475 64.4501 201.285 64.5334 201.152 64.7001C201.025 64.8601 200.962 65.0934 200.962 65.4001V65.7701H201.942V66.4301H200.962V70.6001ZM204.054 70.7201C203.701 70.7201 203.434 70.6234 203.254 70.4301C203.074 70.2368 202.984 69.9568 202.984 69.5901V66.4301H202.184V65.7701H202.984V64.4501H203.734V65.7701H204.714V66.4301H203.734V69.4301C203.734 69.6168 203.774 69.7668 203.854 69.8801C203.941 69.9934 204.064 70.0501 204.224 70.0501C204.444 70.0501 204.614 69.9834 204.734 69.8501L204.954 70.4101C204.734 70.6168 204.434 70.7201 204.054 70.7201ZM209.882 70.7201C209.062 70.7201 208.412 70.4668 207.932 69.9601L208.322 69.4201C208.488 69.6134 208.715 69.7768 209.002 69.9101C209.295 70.0434 209.598 70.1101 209.912 70.1101C210.272 70.1101 210.552 70.0334 210.752 69.8801C210.952 69.7268 211.052 69.5268 211.052 69.2801C211.052 69.0668 210.948 68.9001 210.742 68.7801C210.535 68.6534 210.285 68.5601 209.992 68.5001C209.705 68.4334 209.415 68.3601 209.122 68.2801C208.828 68.1934 208.578 68.0501 208.372 67.8501C208.165 67.6434 208.062 67.3734 208.062 67.0401C208.062 66.6468 208.222 66.3168 208.542 66.0501C208.868 65.7834 209.308 65.6501 209.862 65.6501C210.588 65.6501 211.185 65.8834 211.652 66.3501L211.302 66.8701C210.962 66.4634 210.482 66.2601 209.862 66.2601C209.535 66.2601 209.275 66.3334 209.082 66.4801C208.888 66.6201 208.792 66.8001 208.792 67.0201C208.792 67.2134 208.895 67.3668 209.102 67.4801C209.308 67.5868 209.555 67.6734 209.842 67.7401C210.135 67.8001 210.428 67.8734 210.722 67.9601C211.015 68.0468 211.265 68.2001 211.472 68.4201C211.678 68.6334 211.782 68.9134 211.782 69.2601C211.782 69.6868 211.615 70.0368 211.282 70.3101C210.948 70.5834 210.482 70.7201 209.882 70.7201ZM217.25 70.6001H216.29L214.55 68.4301L213.75 69.2201V70.6001H213V63.9301H213.75V68.3401L216.29 65.7701H217.24L215.1 67.9601L217.25 70.6001ZM218.507 65.0801C218.373 65.0801 218.257 65.0334 218.157 64.9401C218.057 64.8401 218.007 64.7201 218.007 64.5801C218.007 64.4401 218.057 64.3201 218.157 64.2201C218.257 64.1201 218.373 64.0701 218.507 64.0701C218.647 64.0701 218.767 64.1201 218.867 64.2201C218.967 64.3201 219.017 64.4401 219.017 64.5801C219.017 64.7201 218.967 64.8401 218.867 64.9401C218.767 65.0334 218.647 65.0801 218.507 65.0801ZM218.887 70.6001H218.137V65.7701H218.887V70.6001ZM221.133 70.6001H220.383V63.9301H221.133V70.6001ZM223.379 70.6001H222.629V63.9301H223.379V70.6001ZM226.405 70.7201C225.585 70.7201 224.935 70.4668 224.455 69.9601L224.845 69.4201C225.012 69.6134 225.238 69.7768 225.525 69.9101C225.818 70.0434 226.122 70.1101 226.435 70.1101C226.795 70.1101 227.075 70.0334 227.275 69.8801C227.475 69.7268 227.575 69.5268 227.575 69.2801C227.575 69.0668 227.472 68.9001 227.265 68.7801C227.058 68.6534 226.808 68.5601 226.515 68.5001C226.228 68.4334 225.938 68.3601 225.645 68.2801C225.352 68.1934 225.102 68.0501 224.895 67.8501C224.688 67.6434 224.585 67.3734 224.585 67.0401C224.585 66.6468 224.745 66.3168 225.065 66.0501C225.392 65.7834 225.832 65.6501 226.385 65.6501C227.112 65.6501 227.708 65.8834 228.175 66.3501L227.825 66.8701C227.485 66.4634 227.005 66.2601 226.385 66.2601C226.058 66.2601 225.798 66.3334 225.605 66.4801C225.412 66.6201 225.315 66.8001 225.315 67.0201C225.315 67.2134 225.418 67.3668 225.625 67.4801C225.832 67.5868 226.078 67.6734 226.365 67.7401C226.658 67.8001 226.952 67.8734 227.245 67.9601C227.538 68.0468 227.788 68.2001 227.995 68.4201C228.202 68.6334 228.305 68.9134 228.305 69.2601C228.305 69.6868 228.138 70.0368 227.805 70.3101C227.472 70.5834 227.005 70.7201 226.405 70.7201Z" fill="white"/>
<path fill-rule="evenodd" clip-rule="evenodd" d="M246.725 72.3522L243.792 69.4198L240.86 72.3522L239.882 71.3747L242.815 68.4424L239.882 65.51L240.86 64.5325L243.792 67.4649L246.725 64.5325L247.702 65.51L244.77 68.4424L247.702 71.3747L246.725 72.3522Z" fill="white"/>
<g opacity="0.7">
<rect x="133" y="121" width="97" height="20" rx="6" fill="#1266E3"/>
<path d="M141.855 134H141.105V129.83H139.705V129.17H143.265V129.83H141.855V134ZM146.628 134.12C145.948 134.12 145.405 133.837 144.998 133.27V135.84H144.248V129.17H144.998V129.89C145.178 129.637 145.411 129.433 145.698 129.28C145.985 129.127 146.295 129.05 146.628 129.05C147.268 129.05 147.785 129.28 148.178 129.74C148.578 130.193 148.778 130.807 148.778 131.58C148.778 132.353 148.578 132.97 148.178 133.43C147.785 133.89 147.268 134.12 146.628 134.12ZM146.438 133.45C146.911 133.45 147.288 133.277 147.568 132.93C147.848 132.577 147.988 132.127 147.988 131.58C147.988 131.033 147.848 130.587 147.568 130.24C147.288 129.893 146.911 129.72 146.438 129.72C146.151 129.72 145.871 129.797 145.598 129.95C145.331 130.097 145.131 130.277 144.998 130.49V132.67C145.131 132.89 145.331 133.077 145.598 133.23C145.871 133.377 146.151 133.45 146.438 133.45ZM149.701 135.89L149.821 135.21C149.941 135.263 150.077 135.29 150.231 135.29C150.404 135.29 150.547 135.253 150.661 135.18C150.774 135.107 150.871 134.973 150.951 134.78L151.271 134.05L149.251 129.17H150.061L151.671 133.13L153.271 129.17H154.091L151.671 134.98C151.404 135.62 150.931 135.947 150.251 135.96C150.051 135.96 149.867 135.937 149.701 135.89ZM154.303 135.23V133.38C154.55 133.333 154.743 133.187 154.883 132.94C155.023 132.687 155.136 132.223 155.223 131.55L155.533 129.17H158.893V133.34H159.453V135.23H158.703V134H155.053V135.23H154.303ZM156.193 129.83L155.973 131.64C155.86 132.487 155.626 133.053 155.273 133.34H158.143V129.83H156.193ZM164.319 133.39C163.885 133.877 163.309 134.12 162.589 134.12C161.869 134.12 161.289 133.877 160.849 133.39C160.415 132.903 160.199 132.3 160.199 131.58C160.199 130.86 160.415 130.26 160.849 129.78C161.289 129.293 161.869 129.05 162.589 129.05C163.309 129.05 163.885 129.293 164.319 129.78C164.759 130.26 164.979 130.86 164.979 131.58C164.979 132.3 164.759 132.903 164.319 133.39ZM161.409 132.91C161.702 133.27 162.095 133.45 162.589 133.45C163.082 133.45 163.472 133.27 163.759 132.91C164.045 132.543 164.189 132.1 164.189 131.58C164.189 131.06 164.045 130.62 163.759 130.26C163.472 129.9 163.082 129.72 162.589 129.72C162.095 129.72 161.702 129.903 161.409 130.27C161.122 130.63 160.979 131.067 160.979 131.58C160.979 132.1 161.122 132.543 161.409 132.91ZM165.931 135.89L166.051 135.21C166.171 135.263 166.308 135.29 166.461 135.29C166.635 135.29 166.778 135.253 166.891 135.18C167.005 135.107 167.101 134.973 167.181 134.78L167.501 134.05L165.481 129.17H166.291L167.901 133.13L169.501 129.17H170.321L167.901 134.98C167.635 135.62 167.161 135.947 166.481 135.96C166.281 135.96 166.098 135.937 165.931 135.89ZM173.234 134.12C172.52 134.12 171.94 133.88 171.494 133.4C171.047 132.913 170.824 132.307 170.824 131.58C170.824 130.853 171.047 130.25 171.494 129.77C171.94 129.29 172.52 129.05 173.234 129.05C173.98 129.05 174.57 129.33 175.004 129.89L174.504 130.35C174.197 129.93 173.787 129.72 173.274 129.72C172.767 129.72 172.36 129.893 172.054 130.24C171.754 130.587 171.604 131.033 171.604 131.58C171.604 132.127 171.754 132.577 172.054 132.93C172.36 133.277 172.767 133.45 173.274 133.45C173.78 133.45 174.19 133.24 174.504 132.82L175.004 133.28C174.57 133.84 173.98 134.12 173.234 134.12ZM177.685 134H176.935V129.83H175.535V129.17H179.095V129.83H177.685V134ZM182.458 134.12C181.778 134.12 181.235 133.837 180.828 133.27V135.84H180.078V129.17H180.828V129.89C181.008 129.637 181.241 129.433 181.528 129.28C181.815 129.127 182.125 129.05 182.458 129.05C183.098 129.05 183.615 129.28 184.008 129.74C184.408 130.193 184.608 130.807 184.608 131.58C184.608 132.353 184.408 132.97 184.008 133.43C183.615 133.89 183.098 134.12 182.458 134.12ZM182.268 133.45C182.741 133.45 183.118 133.277 183.398 132.93C183.678 132.577 183.818 132.127 183.818 131.58C183.818 131.033 183.678 130.587 183.398 130.24C183.118 129.893 182.741 129.72 182.268 129.72C181.981 129.72 181.701 129.797 181.428 129.95C181.161 130.097 180.961 130.277 180.828 130.49V132.67C180.961 132.89 181.161 133.077 181.428 133.23C181.701 133.377 181.981 133.45 182.268 133.45ZM189.641 133.39C189.207 133.877 188.631 134.12 187.911 134.12C187.191 134.12 186.611 133.877 186.171 133.39C185.737 132.903 185.521 132.3 185.521 131.58C185.521 130.86 185.737 130.26 186.171 129.78C186.611 129.293 187.191 129.05 187.911 129.05C188.631 129.05 189.207 129.293 189.641 129.78C190.081 130.26 190.301 130.86 190.301 131.58C190.301 132.3 190.081 132.903 189.641 133.39ZM186.731 132.91C187.024 133.27 187.417 133.45 187.911 133.45C188.404 133.45 188.794 133.27 189.081 132.91C189.367 132.543 189.511 132.1 189.511 131.58C189.511 131.06 189.367 130.62 189.081 130.26C188.794 129.9 188.404 129.72 187.911 129.72C187.417 129.72 187.024 129.903 186.731 130.27C186.444 130.63 186.301 131.067 186.301 131.58C186.301 132.1 186.444 132.543 186.731 132.91ZM192.243 134H191.523V129.17H192.273V132.86L194.803 129.17H195.543V134H194.793V130.24L192.243 134ZM195.283 127.74C194.85 128.327 194.267 128.62 193.533 128.62C192.807 128.62 192.22 128.327 191.773 127.74L192.143 127.42C192.49 127.9 192.953 128.14 193.533 128.14C194.12 128.14 194.58 127.9 194.913 127.42L195.283 127.74ZM199.171 134.12C198.458 134.12 197.878 133.88 197.431 133.4C196.984 132.913 196.761 132.307 196.761 131.58C196.761 130.853 196.984 130.25 197.431 129.77C197.878 129.29 198.458 129.05 199.171 129.05C199.918 129.05 200.508 129.33 200.941 129.89L200.441 130.35C200.134 129.93 199.724 129.72 199.211 129.72C198.704 129.72 198.298 129.893 197.991 130.24C197.691 130.587 197.541 131.033 197.541 131.58C197.541 132.127 197.691 132.577 197.991 132.93C198.298 133.277 198.704 133.45 199.211 133.45C199.718 133.45 200.128 133.24 200.441 132.82L200.941 133.28C200.508 133.84 199.918 134.12 199.171 134.12ZM203.622 134H202.872V129.83H201.472V129.17H205.032V129.83H203.622V134ZM208.726 134H206.016V129.17H208.676C209.096 129.17 209.426 129.283 209.666 129.51C209.912 129.737 210.036 130.037 210.036 130.41C210.036 130.683 209.959 130.92 209.806 131.12C209.659 131.313 209.476 131.443 209.256 131.51C209.502 131.57 209.709 131.713 209.876 131.94C210.049 132.167 210.136 132.417 210.136 132.69C210.136 133.083 210.009 133.4 209.756 133.64C209.509 133.88 209.166 134 208.726 134ZM208.576 133.34C208.816 133.34 209.006 133.273 209.146 133.14C209.286 133.007 209.356 132.827 209.356 132.6C209.356 132.393 209.286 132.217 209.146 132.07C209.006 131.923 208.816 131.85 208.576 131.85H206.766V133.34H208.576ZM208.546 131.19C208.772 131.19 208.949 131.13 209.076 131.01C209.202 130.883 209.266 130.72 209.266 130.52C209.266 130.307 209.202 130.14 209.076 130.02C208.949 129.893 208.772 129.83 208.546 129.83H206.766V131.19H208.546ZM215.393 133.39C214.959 133.877 214.383 134.12 213.663 134.12C212.943 134.12 212.363 133.877 211.923 133.39C211.489 132.903 211.273 132.3 211.273 131.58C211.273 130.86 211.489 130.26 211.923 129.78C212.363 129.293 212.943 129.05 213.663 129.05C214.383 129.05 214.959 129.293 215.393 129.78C215.833 130.26 216.053 130.86 216.053 131.58C216.053 132.3 215.833 132.903 215.393 133.39ZM212.483 132.91C212.776 133.27 213.169 133.45 213.663 133.45C214.156 133.45 214.546 133.27 214.833 132.91C215.119 132.543 215.263 132.1 215.263 131.58C215.263 131.06 215.119 130.62 214.833 130.26C214.546 129.9 214.156 129.72 213.663 129.72C213.169 129.72 212.776 129.903 212.483 130.27C212.196 130.63 212.053 131.067 212.053 131.58C212.053 132.1 212.196 132.543 212.483 132.91Z" fill="white"/>
<path fill-rule="evenodd" clip-rule="evenodd" d="M225.5 134.35L222.95 131.8L220.4 134.35L219.55 133.5L222.1 130.95L219.55 128.4L220.4 127.55L222.95 130.1L225.5 127.55L226.35 128.4L223.8 130.95L226.35 133.5L225.5 134.35Z" fill="white"/>
</g>
<g opacity="0.55">
<rect x="20" y="108" width="102" height="20" rx="6" fill="#5A8FCC"/>
<path d="M27.4864 121H26.7364V116.83H25.3364V116.17H28.8964V116.83H27.4864V121ZM32.0599 121.12C31.3399 121.12 30.7499 120.887 30.2899 120.42C29.8299 119.947 29.5999 119.333 29.5999 118.58C29.5999 117.873 29.8265 117.277 30.2799 116.79C30.7332 116.297 31.2999 116.05 31.9799 116.05C32.6932 116.05 33.2565 116.297 33.6699 116.79C34.0899 117.277 34.2999 117.893 34.2999 118.64V118.83H30.3899C30.4232 119.303 30.5965 119.7 30.9099 120.02C31.2232 120.34 31.6299 120.5 32.1299 120.5C32.7299 120.5 33.2265 120.297 33.6199 119.89L33.9799 120.38C33.4865 120.873 32.8465 121.12 32.0599 121.12ZM33.5599 118.28C33.5532 117.867 33.4132 117.497 33.1399 117.17C32.8665 116.837 32.4765 116.67 31.9699 116.67C31.4899 116.67 31.1099 116.833 30.8299 117.16C30.5565 117.487 30.4099 117.86 30.3899 118.28H33.5599ZM37.6446 121.12C36.9313 121.12 36.3513 120.88 35.9046 120.4C35.458 119.913 35.2346 119.307 35.2346 118.58C35.2346 117.853 35.458 117.25 35.9046 116.77C36.3513 116.29 36.9313 116.05 37.6446 116.05C38.3913 116.05 38.9813 116.33 39.4146 116.89L38.9146 117.35C38.608 116.93 38.198 116.72 37.6846 116.72C37.178 116.72 36.7713 116.893 36.4646 117.24C36.1646 117.587 36.0146 118.033 36.0146 118.58C36.0146 119.127 36.1646 119.577 36.4646 119.93C36.7713 120.277 37.178 120.45 37.6846 120.45C38.1913 120.45 38.6013 120.24 38.9146 119.82L39.4146 120.28C38.9813 120.84 38.3913 121.12 37.6446 121.12ZM42.0958 121H41.3458V116.83H39.9458V116.17H43.5058V116.83H42.0958V121ZM48.3293 120.39C47.8959 120.877 47.3193 121.12 46.5993 121.12C45.8793 121.12 45.2993 120.877 44.8593 120.39C44.4259 119.903 44.2093 119.3 44.2093 118.58C44.2093 117.86 44.4259 117.26 44.8593 116.78C45.2993 116.293 45.8793 116.05 46.5993 116.05C47.3193 116.05 47.8959 116.293 48.3293 116.78C48.7693 117.26 48.9893 117.86 48.9893 118.58C48.9893 119.3 48.7693 119.903 48.3293 120.39ZM45.4193 119.91C45.7126 120.27 46.1059 120.45 46.5993 120.45C47.0926 120.45 47.4826 120.27 47.7693 119.91C48.0559 119.543 48.1993 119.1 48.1993 118.58C48.1993 118.06 48.0559 117.62 47.7693 117.26C47.4826 116.9 47.0926 116.72 46.5993 116.72C46.1059 116.72 45.7126 116.903 45.4193 117.27C45.1326 117.63 44.9893 118.067 44.9893 118.58C44.9893 119.1 45.1326 119.543 45.4193 119.91ZM52.9219 121H50.2119V116.17H52.8719C53.2919 116.17 53.6219 116.283 53.8619 116.51C54.1086 116.737 54.2319 117.037 54.2319 117.41C54.2319 117.683 54.1552 117.92 54.0019 118.12C53.8552 118.313 53.6719 118.443 53.4519 118.51C53.6986 118.57 53.9052 118.713 54.0719 118.94C54.2452 119.167 54.3319 119.417 54.3319 119.69C54.3319 120.083 54.2052 120.4 53.9519 120.64C53.7052 120.88 53.3619 121 52.9219 121ZM52.7719 120.34C53.0119 120.34 53.2019 120.273 53.3419 120.14C53.4819 120.007 53.5519 119.827 53.5519 119.6C53.5519 119.393 53.4819 119.217 53.3419 119.07C53.2019 118.923 53.0119 118.85 52.7719 118.85H50.9619V120.34H52.7719ZM52.7419 118.19C52.9686 118.19 53.1452 118.13 53.2719 118.01C53.3986 117.883 53.4619 117.72 53.4619 117.52C53.4619 117.307 53.3986 117.14 53.2719 117.02C53.1452 116.893 52.9686 116.83 52.7419 116.83H50.9619V118.19H52.7419ZM59.589 120.39C59.1557 120.877 58.579 121.12 57.859 121.12C57.139 121.12 56.559 120.877 56.119 120.39C55.6857 119.903 55.469 119.3 55.469 118.58C55.469 117.86 55.6857 117.26 56.119 116.78C56.559 116.293 57.139 116.05 57.859 116.05C58.579 116.05 59.1557 116.293 59.589 116.78C60.029 117.26 60.249 117.86 60.249 118.58C60.249 119.3 60.029 119.903 59.589 120.39ZM56.679 119.91C56.9724 120.27 57.3657 120.45 57.859 120.45C58.3524 120.45 58.7424 120.27 59.029 119.91C59.3157 119.543 59.459 119.1 59.459 118.58C59.459 118.06 59.3157 117.62 59.029 117.26C58.7424 116.9 58.3524 116.72 57.859 116.72C57.3657 116.72 56.9724 116.903 56.679 117.27C56.3924 117.63 56.249 118.067 56.249 118.58C56.249 119.1 56.3924 119.543 56.679 119.91ZM63.6517 121.12C62.9317 121.12 62.3417 120.887 61.8817 120.42C61.4217 119.947 61.1917 119.333 61.1917 118.58C61.1917 117.873 61.4183 117.277 61.8717 116.79C62.325 116.297 62.8917 116.05 63.5717 116.05C64.285 116.05 64.8483 116.297 65.2617 116.79C65.6817 117.277 65.8917 117.893 65.8917 118.64V118.83H61.9817C62.015 119.303 62.1883 119.7 62.5017 120.02C62.815 120.34 63.2217 120.5 63.7217 120.5C64.3217 120.5 64.8183 120.297 65.2117 119.89L65.5717 120.38C65.0783 120.873 64.4383 121.12 63.6517 121.12ZM65.1517 118.28C65.145 117.867 65.005 117.497 64.7317 117.17C64.4583 116.837 64.0683 116.67 63.5617 116.67C63.0817 116.67 62.7017 116.833 62.4217 117.16C62.1483 117.487 62.0017 117.86 61.9817 118.28H65.1517ZM71.3946 121.12C70.4679 121.12 69.7412 120.857 69.2146 120.33L69.5846 119.85C70.0379 120.283 70.6412 120.5 71.3946 120.5C71.8279 120.5 72.1712 120.423 72.4246 120.27C72.6846 120.117 72.8146 119.913 72.8146 119.66C72.8146 119.127 72.3079 118.86 71.2946 118.86H70.2146V118.25H71.2946C71.7146 118.25 72.0579 118.183 72.3246 118.05C72.5912 117.91 72.7246 117.707 72.7246 117.44C72.7246 117.213 72.5912 117.03 72.3246 116.89C72.0579 116.743 71.7212 116.67 71.3146 116.67C70.6412 116.67 70.1012 116.877 69.6946 117.29L69.3046 116.83C69.8046 116.317 70.4646 116.06 71.2846 116.06C71.9446 116.053 72.4779 116.167 72.8846 116.4C73.2979 116.627 73.5046 116.943 73.5046 117.35C73.5046 117.683 73.3679 117.953 73.0946 118.16C72.8279 118.367 72.5312 118.49 72.2046 118.53C72.5446 118.557 72.8612 118.67 73.1546 118.87C73.4546 119.07 73.6046 119.35 73.6046 119.71C73.6046 120.123 73.4046 120.463 73.0046 120.73C72.6112 120.99 72.0746 121.12 71.3946 121.12ZM78.5913 121H77.8413V120.45C77.4346 120.897 76.9013 121.12 76.2413 121.12C75.7946 121.12 75.4013 120.977 75.0613 120.69C74.7213 120.403 74.5513 120.013 74.5513 119.52C74.5513 119.013 74.718 118.623 75.0513 118.35C75.3913 118.07 75.788 117.93 76.2413 117.93C76.928 117.93 77.4613 118.15 77.8413 118.59V117.72C77.8413 117.4 77.728 117.15 77.5013 116.97C77.2746 116.79 76.9813 116.7 76.6213 116.7C76.0546 116.7 75.5613 116.923 75.1413 117.37L74.7913 116.85C75.3046 116.317 75.948 116.05 76.7213 116.05C77.2746 116.05 77.7246 116.183 78.0713 116.45C78.418 116.717 78.5913 117.127 78.5913 117.68V121ZM76.5113 120.58C77.1113 120.58 77.5546 120.38 77.8413 119.98V119.07C77.5546 118.67 77.1113 118.47 76.5113 118.47C76.1646 118.47 75.878 118.57 75.6513 118.77C75.4313 118.963 75.3213 119.217 75.3213 119.53C75.3213 119.837 75.4313 120.09 75.6513 120.29C75.878 120.483 76.1646 120.58 76.5113 120.58ZM79.5247 122.23V120.38C79.7714 120.333 79.9647 120.187 80.1047 119.94C80.2447 119.687 80.3581 119.223 80.4447 118.55L80.7547 116.17H84.1147V120.34H84.6747V122.23H83.9247V121H80.2747V122.23H79.5247ZM81.4147 116.83L81.1947 118.64C81.0814 119.487 80.8481 120.053 80.4947 120.34H83.3647V116.83H81.4147ZM89.4702 121H88.7202V120.45C88.3135 120.897 87.7802 121.12 87.1202 121.12C86.6735 121.12 86.2802 120.977 85.9402 120.69C85.6002 120.403 85.4302 120.013 85.4302 119.52C85.4302 119.013 85.5969 118.623 85.9302 118.35C86.2702 118.07 86.6669 117.93 87.1202 117.93C87.8069 117.93 88.3402 118.15 88.7202 118.59V117.72C88.7202 117.4 88.6069 117.15 88.3802 116.97C88.1535 116.79 87.8602 116.7 87.5002 116.7C86.9335 116.7 86.4402 116.923 86.0202 117.37L85.6702 116.85C86.1835 116.317 86.8269 116.05 87.6002 116.05C88.1535 116.05 88.6035 116.183 88.9502 116.45C89.2969 116.717 89.4702 117.127 89.4702 117.68V121ZM87.3902 120.58C87.9902 120.58 88.4335 120.38 88.7202 119.98V119.07C88.4335 118.67 87.9902 118.47 87.3902 118.47C87.0435 118.47 86.7569 118.57 86.5302 118.77C86.3102 118.963 86.2002 119.217 86.2002 119.53C86.2002 119.837 86.3102 120.09 86.5302 120.29C86.7569 120.483 87.0435 120.58 87.3902 120.58ZM91.7236 121H90.9736V116.17H91.7236V118.18H94.2436V116.17H94.9936V121H94.2436V118.84H91.7236V121ZM97.2112 121H96.4912V116.17H97.2412V119.86L99.7712 116.17H100.511V121H99.7612V117.24L97.2112 121ZM104.189 121.12C103.469 121.12 102.879 120.887 102.419 120.42C101.959 119.947 101.729 119.333 101.729 118.58C101.729 117.873 101.955 117.277 102.409 116.79C102.862 116.297 103.429 116.05 104.109 116.05C104.822 116.05 105.385 116.297 105.799 116.79C106.219 117.277 106.429 117.893 106.429 118.64V118.83H102.519C102.552 119.303 102.725 119.7 103.039 120.02C103.352 120.34 103.759 120.5 104.259 120.5C104.859 120.5 105.355 120.297 105.749 119.89L106.109 120.38C105.615 120.873 104.975 121.12 104.189 121.12ZM105.689 118.28C105.682 117.867 105.542 117.497 105.269 117.17C104.995 116.837 104.605 116.67 104.099 116.67C103.619 116.67 103.239 116.833 102.959 117.16C102.685 117.487 102.539 117.86 102.519 118.28H105.689Z" fill="white"/>
<path fill-rule="evenodd" clip-rule="evenodd" d="M116.5 121.35L113.95 118.8L111.4 121.35L110.55 120.5L113.1 117.95L110.55 115.4L111.4 114.55L113.95 117.1L116.5 114.55L117.35 115.4L114.8 117.95L117.35 120.5L116.5 121.35Z" fill="white"/>
</g>
</svg>
