<svg width="842" height="59" viewBox="0 0 842 59" fill="none" xmlns="http://www.w3.org/2000/svg">
<path d="M5.992 14H0.924V4.662H5.838C6.68733 4.662 7.34533 4.89533 7.812 5.362C8.288 5.81933 8.526 6.37933 8.526 7.042C8.526 7.61133 8.372 8.08733 8.064 8.47C7.756 8.85267 7.37333 9.09067 6.916 9.184C7.42 9.25867 7.84467 9.51533 8.19 9.954C8.53533 10.3927 8.708 10.9013 8.708 11.48C8.708 12.208 8.47 12.81 7.994 13.286C7.518 13.762 6.85067 14 5.992 14ZM5.404 8.4C5.74 8.4 6.006 8.30667 6.202 8.12C6.398 7.93333 6.496 7.69067 6.496 7.392C6.496 7.09333 6.39333 6.85067 6.188 6.664C5.992 6.468 5.73067 6.37 5.404 6.37H2.912V8.4H5.404ZM5.474 12.278C5.84733 12.278 6.14133 12.1847 6.356 11.998C6.57067 11.802 6.678 11.536 6.678 11.2C6.678 10.892 6.57067 10.6353 6.356 10.43C6.14133 10.2153 5.84733 10.108 5.474 10.108H2.912V12.278H5.474ZM14.7292 14.168C13.3105 14.168 12.1252 13.72 11.1732 12.824C10.2305 11.9187 9.7592 10.7567 9.7592 9.338C9.7592 7.91933 10.2305 6.762 11.1732 5.866C12.1252 4.96067 13.3105 4.508 14.7292 4.508C16.4745 4.508 17.7765 5.26867 18.6352 6.79L16.9272 7.63C16.7219 7.238 16.4185 6.916 16.0172 6.664C15.6252 6.40267 15.1959 6.272 14.7292 6.272C13.8799 6.272 13.1799 6.56133 12.6292 7.14C12.0785 7.71867 11.8032 8.45133 11.8032 9.338C11.8032 10.2247 12.0785 10.9573 12.6292 11.536C13.1799 12.1147 13.8799 12.404 14.7292 12.404C15.1959 12.404 15.6252 12.278 16.0172 12.026C16.4185 11.774 16.7219 11.4473 16.9272 11.046L18.6352 11.872C17.7485 13.4027 16.4465 14.168 14.7292 14.168ZM26.4265 14H19.8185V4.662H26.4265V6.412H21.8065V8.386H26.3285V10.136H21.8065V12.25H26.4265V14ZM29.9686 14H27.9806V4.662H34.5886V6.412H29.9686V14ZM40.0609 14.168C38.6516 14.168 37.4849 13.7153 36.5609 12.81C35.6462 11.8953 35.1889 10.738 35.1889 9.338C35.1889 7.938 35.6462 6.78533 36.5609 5.88C37.4849 4.96533 38.6516 4.508 40.0609 4.508C41.4796 4.508 42.6462 4.96067 43.5609 5.866C44.4849 6.77133 44.9469 7.92867 44.9469 9.338C44.9469 10.7473 44.4849 11.9047 43.5609 12.81C42.6462 13.7153 41.4796 14.168 40.0609 14.168ZM38.0029 11.536C38.5256 12.1147 39.2116 12.404 40.0609 12.404C40.9102 12.404 41.5962 12.1147 42.1189 11.536C42.6416 10.9573 42.9029 10.2247 42.9029 9.338C42.9029 8.45133 42.6416 7.71867 42.1189 7.14C41.5962 6.56133 40.9102 6.272 40.0609 6.272C39.2116 6.272 38.5256 6.56133 38.0029 7.14C37.4896 7.71867 37.2329 8.45133 37.2329 9.338C37.2329 10.2247 37.4896 10.9573 38.0029 11.536ZM51.912 14H49.924V4.662H54.292C55.272 4.662 56.0373 4.95133 56.588 5.53C57.148 6.09933 57.428 6.81333 57.428 7.672C57.428 8.52133 57.148 9.23533 56.588 9.814C56.028 10.3927 55.2627 10.682 54.292 10.682H51.912V14ZM54.026 8.932C54.4273 8.932 54.754 8.82 55.006 8.596C55.2673 8.36267 55.398 8.05467 55.398 7.672C55.398 7.28933 55.2673 6.986 55.006 6.762C54.754 6.52867 54.4273 6.412 54.026 6.412H51.912V8.932H54.026ZM65.2683 14H58.6603V4.662H65.2683V6.412H60.6483V8.386H65.1703V10.136H60.6483V12.25H65.2683V14ZM70.0284 14.168C69.1978 14.168 68.4371 14.028 67.7464 13.748C67.0558 13.468 66.5331 13.1087 66.1784 12.67L67.2144 11.34C67.5224 11.6667 67.9331 11.928 68.4464 12.124C68.9691 12.3107 69.4684 12.404 69.9444 12.404C70.5511 12.404 71.0271 12.2967 71.3724 12.082C71.7178 11.858 71.8904 11.5687 71.8904 11.214C71.8904 10.4953 71.2044 10.136 69.8324 10.136H67.9424V8.386H69.8324C70.4111 8.386 70.8731 8.302 71.2184 8.134C71.5638 7.966 71.7364 7.71867 71.7364 7.392C71.7364 7.03733 71.5591 6.76667 71.2044 6.58C70.8498 6.384 70.3924 6.286 69.8324 6.286C68.8151 6.286 67.9704 6.608 67.2984 7.252L66.3044 6.006C66.6964 5.558 67.2144 5.19867 67.8584 4.928C68.5118 4.65733 69.2351 4.522 70.0284 4.522C71.1298 4.522 72.0211 4.75067 72.7024 5.208C73.3838 5.66533 73.7244 6.28133 73.7244 7.056C73.7244 7.616 73.5238 8.08733 73.1224 8.47C72.7211 8.84333 72.2451 9.08133 71.6944 9.184C72.2358 9.24 72.7304 9.46867 73.1784 9.87C73.6358 10.262 73.8644 10.78 73.8644 11.424C73.8644 12.2267 73.5051 12.8847 72.7864 13.398C72.0678 13.9113 71.1484 14.168 70.0284 14.168ZM83.6834 14.168C82.4047 14.168 81.322 13.79 80.4354 13.034C79.5487 12.278 79.0214 11.2933 78.8534 10.08H77.3554V14H75.3674V4.662H77.3554V8.33H78.8954C79.11 7.19133 79.6514 6.272 80.5194 5.572C81.3967 4.86267 82.4514 4.508 83.6834 4.508C85.102 4.508 86.2687 4.96067 87.1834 5.866C88.098 6.77133 88.5554 7.92867 88.5554 9.338C88.5554 10.7473 88.098 11.9047 87.1834 12.81C86.2687 13.7153 85.102 14.168 83.6834 14.168ZM81.6254 11.536C82.148 12.1147 82.834 12.404 83.6834 12.404C84.5327 12.404 85.2187 12.1147 85.7414 11.536C86.264 10.9573 86.5254 10.2247 86.5254 9.338C86.5254 8.45133 86.264 7.71867 85.7414 7.14C85.2187 6.56133 84.5327 6.272 83.6834 6.272C82.8247 6.272 82.134 6.56133 81.6114 7.14C81.098 7.71867 80.8414 8.45133 80.8414 9.338C80.8414 10.2247 81.1027 10.9573 81.6254 11.536ZM100.091 14H98.0889V7.462L95.4569 14H94.5889L91.9569 7.462V14H89.9689V4.662H92.7549L95.0229 10.304L97.2909 4.662H100.091V14ZM108.553 14H101.945V4.662H108.553V6.412H103.933V8.386H108.455V10.136H103.933V12.25H108.553V14ZM111.774 9.072C111.55 9.296 111.284 9.408 110.976 9.408C110.668 9.408 110.402 9.296 110.178 9.072C109.954 8.848 109.842 8.582 109.842 8.274C109.842 7.966 109.954 7.7 110.178 7.476C110.402 7.252 110.668 7.14 110.976 7.14C111.284 7.14 111.55 7.252 111.774 7.476C111.998 7.7 112.11 7.966 112.11 8.274C112.11 8.582 111.998 8.848 111.774 9.072ZM111.774 13.818C111.55 14.042 111.284 14.154 110.976 14.154C110.668 14.154 110.402 14.042 110.178 13.818C109.954 13.594 109.842 13.328 109.842 13.02C109.842 12.712 109.954 12.446 110.178 12.222C110.402 11.998 110.668 11.886 110.976 11.886C111.284 11.886 111.55 11.998 111.774 12.222C111.998 12.446 112.11 12.712 112.11 13.02C112.11 13.328 111.998 13.594 111.774 13.818Z" fill="black" fill-opacity="0.5"/>
<path d="M401.992 14H396.924V4.662H401.838C402.687 4.662 403.345 4.89533 403.812 5.362C404.288 5.81933 404.526 6.37933 404.526 7.042C404.526 7.61133 404.372 8.08733 404.064 8.47C403.756 8.85267 403.373 9.09067 402.916 9.184C403.42 9.25867 403.845 9.51533 404.19 9.954C404.535 10.3927 404.708 10.9013 404.708 11.48C404.708 12.208 404.47 12.81 403.994 13.286C403.518 13.762 402.851 14 401.992 14ZM401.404 8.4C401.74 8.4 402.006 8.30667 402.202 8.12C402.398 7.93333 402.496 7.69067 402.496 7.392C402.496 7.09333 402.393 6.85067 402.188 6.664C401.992 6.468 401.731 6.37 401.404 6.37H398.912V8.4H401.404ZM401.474 12.278C401.847 12.278 402.141 12.1847 402.356 11.998C402.571 11.802 402.678 11.536 402.678 11.2C402.678 10.892 402.571 10.6353 402.356 10.43C402.141 10.2153 401.847 10.108 401.474 10.108H398.912V12.278H401.474ZM411.777 14H409.789V4.662H414.157C415.137 4.662 415.903 4.95133 416.453 5.53C417.013 6.09933 417.293 6.81333 417.293 7.672C417.293 8.52133 417.013 9.23533 416.453 9.814C415.893 10.3927 415.128 10.682 414.157 10.682H411.777V14ZM413.891 8.932C414.293 8.932 414.619 8.82 414.871 8.596C415.133 8.36267 415.263 8.05467 415.263 7.672C415.263 7.28933 415.133 6.986 414.871 6.762C414.619 6.52867 414.293 6.412 413.891 6.412H411.777V8.932H413.891ZM425.134 14H418.526V4.662H425.134V6.412H420.514V8.386H425.036V10.136H420.514V12.25H425.134V14ZM434.682 14H432.232L429.404 10.262L428.676 11.13V14H426.688V4.662H428.676V8.834L431.98 4.662H434.43L430.72 9.044L434.682 14ZM437.576 14H435.588V4.662H439.956C440.936 4.662 441.701 4.95133 442.252 5.53C442.812 6.09933 443.092 6.81333 443.092 7.672C443.092 8.52133 442.812 9.23533 442.252 9.814C441.692 10.3927 440.927 10.682 439.956 10.682H437.576V14ZM439.69 8.932C440.091 8.932 440.418 8.82 440.67 8.596C440.931 8.36267 441.062 8.05467 441.062 7.672C441.062 7.28933 440.931 6.986 440.67 6.762C440.418 6.52867 440.091 6.412 439.69 6.412H437.576V8.932H439.69ZM445.311 14.168C444.891 14.168 444.485 14.1073 444.093 13.986C443.71 13.8553 443.412 13.692 443.197 13.496L443.953 11.9C444.364 12.236 444.765 12.404 445.157 12.404C445.493 12.404 445.754 12.334 445.941 12.194C446.137 12.0447 446.328 11.7927 446.515 11.438L443.071 4.662H445.325L447.635 9.618L449.959 4.662H452.213L448.363 12.208C448.046 12.8427 447.649 13.328 447.173 13.664C446.706 14 446.086 14.168 445.311 14.168ZM457.232 14H455.23V6.412H452.5V4.662H459.948V6.412H457.232V14ZM463.141 14H461.223V4.662H463.211V10.696L467.537 4.662H469.581V14H467.593V7.742L463.141 14ZM479.822 14H477.82V10.08H473.41V14H471.422V4.662H473.41V8.33H477.82V4.662H479.822V14ZM483.65 14H481.662V4.662H488.27V6.412H483.65V14ZM496.268 14H489.66V4.662H496.268V6.412H491.648V8.386H496.17V10.136H491.648V12.25H496.268V14ZM499.488 9.072C499.264 9.296 498.998 9.408 498.69 9.408C498.382 9.408 498.116 9.296 497.892 9.072C497.668 8.848 497.556 8.582 497.556 8.274C497.556 7.966 497.668 7.7 497.892 7.476C498.116 7.252 498.382 7.14 498.69 7.14C498.998 7.14 499.264 7.252 499.488 7.476C499.712 7.7 499.824 7.966 499.824 8.274C499.824 8.582 499.712 8.848 499.488 9.072ZM499.488 13.818C499.264 14.042 498.998 14.154 498.69 14.154C498.382 14.154 498.116 14.042 497.892 13.818C497.668 13.594 497.556 13.328 497.556 13.02C497.556 12.712 497.668 12.446 497.892 12.222C498.116 11.998 498.382 11.886 498.69 11.886C498.998 11.886 499.264 11.998 499.488 12.222C499.712 12.446 499.824 12.712 499.824 13.02C499.824 13.328 499.712 13.594 499.488 13.818Z" fill="black" fill-opacity="0.5"/>
<path d="M547.5 0C552.762 6.27547e-08 557.929 1.40773 562.464 4.07722C567 6.7467 570.738 10.5808 573.292 15.1818C575.846 19.7829 577.123 24.9835 576.991 30.2443C576.858 35.5051 575.32 40.6347 572.537 45.101L570.441 43.7946C572.991 39.7022 574.399 35.0023 574.521 30.182C574.643 25.3617 573.473 20.5966 571.132 16.3808C568.792 12.1651 565.367 8.65206 561.211 6.20611C557.056 3.76016 552.322 2.47032 547.5 2.47032V0Z" fill="black" fill-opacity="0.5" style="mix-blend-mode:multiply"/>
<path d="M533.55 30.636H530.328V34.29H528.762V30.636H525.522V29.214H528.762V25.704H530.328V29.214H533.55V30.636ZM539.866 36.216C538.138 36.216 536.842 35.64 535.978 34.488C535.114 33.336 534.682 31.848 534.682 30.024C534.682 28.164 535.18 26.664 536.176 25.524C537.172 24.384 538.54 23.814 540.28 23.814C541.672 23.814 542.854 24.228 543.826 25.056L542.674 27.018C542.014 26.394 541.216 26.082 540.28 26.082C539.404 26.082 538.684 26.412 538.12 27.072C537.556 27.72 537.274 28.524 537.274 29.484C537.274 29.592 537.28 29.676 537.292 29.736C537.592 29.304 538.024 28.938 538.588 28.638C539.152 28.338 539.746 28.188 540.37 28.188C541.51 28.188 542.476 28.536 543.268 29.232C544.06 29.916 544.456 30.87 544.456 32.094C544.456 33.282 544.03 34.266 543.178 35.046C542.326 35.826 541.222 36.216 539.866 36.216ZM539.722 33.948C540.37 33.948 540.886 33.768 541.27 33.408C541.666 33.048 541.864 32.64 541.864 32.184C541.864 31.596 541.648 31.152 541.216 30.852C540.784 30.54 540.256 30.384 539.632 30.384C538.672 30.384 537.892 30.762 537.292 31.518C537.352 32.19 537.58 32.766 537.976 33.246C538.372 33.714 538.954 33.948 539.722 33.948ZM549.755 36.198C548.327 36.198 547.151 35.784 546.227 34.956L547.361 32.994C548.021 33.618 548.819 33.93 549.755 33.93C550.691 33.93 551.423 33.6 551.951 32.94C552.491 32.268 552.761 31.47 552.761 30.546V30.276C552.449 30.708 552.011 31.074 551.447 31.374C550.883 31.674 550.289 31.824 549.665 31.824C548.525 31.824 547.553 31.482 546.749 30.798C545.957 30.102 545.561 29.142 545.561 27.918C545.561 26.73 545.987 25.746 546.839 24.966C547.703 24.186 548.813 23.796 550.169 23.796C551.333 23.796 552.311 24.084 553.103 24.66C553.907 25.236 554.477 25.98 554.813 26.892C555.161 27.792 555.335 28.83 555.335 30.006C555.335 31.854 554.837 33.348 553.841 34.488C552.857 35.628 551.495 36.198 549.755 36.198ZM550.385 29.628C551.345 29.628 552.131 29.256 552.743 28.512C552.683 27.84 552.455 27.264 552.059 26.784C551.663 26.304 551.075 26.064 550.295 26.064C549.647 26.064 549.131 26.244 548.747 26.604C548.363 26.964 548.171 27.372 548.171 27.828C548.171 28.416 548.387 28.866 548.819 29.178C549.251 29.478 549.773 29.628 550.385 29.628ZM559.483 29.79C558.583 29.79 557.851 29.514 557.287 28.962C556.723 28.398 556.441 27.69 556.441 26.838C556.441 25.974 556.723 25.254 557.287 24.678C557.851 24.102 558.583 23.814 559.483 23.814C560.395 23.814 561.133 24.102 561.697 24.678C562.261 25.254 562.543 25.974 562.543 26.838C562.543 27.69 562.261 28.398 561.697 28.962C561.133 29.514 560.395 29.79 559.483 29.79ZM559.663 36H558.313L565.981 23.994H567.349L559.663 36ZM568.285 35.37C567.721 35.934 566.989 36.216 566.089 36.216C565.189 36.216 564.457 35.934 563.893 35.37C563.329 34.806 563.047 34.098 563.047 33.246C563.047 32.382 563.329 31.662 563.893 31.086C564.457 30.51 565.189 30.222 566.089 30.222C566.989 30.222 567.721 30.51 568.285 31.086C568.861 31.662 569.149 32.382 569.149 33.246C569.149 34.098 568.861 34.806 568.285 35.37ZM559.483 28.386C559.903 28.386 560.245 28.248 560.509 27.972C560.773 27.684 560.905 27.306 560.905 26.838C560.905 26.346 560.773 25.956 560.509 25.668C560.245 25.38 559.903 25.236 559.483 25.236C559.063 25.236 558.721 25.38 558.457 25.668C558.193 25.956 558.061 26.346 558.061 26.838C558.061 27.294 558.193 27.666 558.457 27.954C558.733 28.242 559.075 28.386 559.483 28.386ZM565.063 34.398C565.327 34.674 565.669 34.812 566.089 34.812C566.509 34.812 566.851 34.674 567.115 34.398C567.391 34.11 567.529 33.726 567.529 33.246C567.529 32.754 567.391 32.364 567.115 32.076C566.851 31.788 566.509 31.644 566.089 31.644C565.669 31.644 565.327 31.788 565.063 32.076C564.799 32.364 564.667 32.754 564.667 33.246C564.667 33.726 564.799 34.11 565.063 34.398Z" fill="black" fill-opacity="0.5" style="mix-blend-mode:multiply"/>
<path d="M812.5 0C817.351 5.78512e-08 822.128 1.19643 826.406 3.48332C830.685 5.77021 834.333 9.07697 837.028 13.1107C839.724 17.1444 841.382 21.7805 841.858 26.6085C842.333 31.4364 841.611 36.3071 839.754 40.7892C837.898 45.2712 834.965 49.2262 831.215 52.3038C827.464 55.3814 823.013 57.4867 818.255 58.4332C813.497 59.3796 808.579 59.138 803.937 57.7297C799.294 56.3215 795.071 53.79 791.64 50.3597L793.387 48.6129C796.53 51.756 800.4 54.0755 804.654 55.3658C808.907 56.6561 813.414 56.8775 817.773 56.0103C822.133 55.1431 826.211 53.2141 829.647 50.3942C833.084 47.5743 835.771 43.9505 837.472 39.8438C839.173 35.7371 839.835 31.2743 839.4 26.8506C838.964 22.427 837.444 18.179 834.974 14.4831C832.505 10.7872 829.162 7.75733 825.242 5.66195C821.322 3.56656 816.945 2.47032 812.5 2.47032V0Z" fill="url(#paint0_linear)" style="mix-blend-mode:multiply"/>
<path d="M798.55 30.636H795.328V34.29H793.762V30.636H790.522V29.214H793.762V25.704H795.328V29.214H798.55V30.636ZM804.056 36H801.248L805.55 26.244H799.502V23.994H808.52V25.776L804.056 36ZM814.333 36.216C812.977 36.216 811.831 35.928 810.895 35.352C809.971 34.776 809.509 33.954 809.509 32.886C809.509 32.19 809.749 31.572 810.229 31.032C810.709 30.48 811.327 30.072 812.083 29.808C810.499 29.256 809.707 28.314 809.707 26.982C809.707 25.938 810.163 25.152 811.075 24.624C811.999 24.084 813.085 23.814 814.333 23.814C815.125 23.814 815.857 23.916 816.529 24.12C817.201 24.324 817.771 24.678 818.239 25.182C818.719 25.674 818.959 26.274 818.959 26.982C818.959 28.302 818.161 29.244 816.565 29.808C817.321 30.072 817.939 30.48 818.419 31.032C818.911 31.572 819.157 32.19 819.157 32.886C819.157 33.942 818.689 34.764 817.753 35.352C816.817 35.928 815.677 36.216 814.333 36.216ZM814.333 28.8C814.825 28.728 815.281 28.572 815.701 28.332C816.133 28.092 816.349 27.774 816.349 27.378C816.349 26.958 816.163 26.628 815.791 26.388C815.419 26.136 814.933 26.01 814.333 26.01C813.733 26.01 813.241 26.136 812.857 26.388C812.485 26.628 812.299 26.958 812.299 27.378C812.299 27.774 812.515 28.092 812.947 28.332C813.379 28.572 813.841 28.728 814.333 28.8ZM814.333 34.02C814.957 34.02 815.485 33.888 815.917 33.624C816.349 33.348 816.565 32.994 816.565 32.562C816.565 32.118 816.319 31.758 815.827 31.482C815.347 31.206 814.849 31.032 814.333 30.96C813.817 31.032 813.313 31.206 812.821 31.482C812.341 31.758 812.101 32.118 812.101 32.562C812.101 32.994 812.311 33.348 812.731 33.624C813.163 33.888 813.697 34.02 814.333 34.02ZM823.305 29.79C822.405 29.79 821.673 29.514 821.109 28.962C820.545 28.398 820.263 27.69 820.263 26.838C820.263 25.974 820.545 25.254 821.109 24.678C821.673 24.102 822.405 23.814 823.305 23.814C824.217 23.814 824.955 24.102 825.519 24.678C826.083 25.254 826.365 25.974 826.365 26.838C826.365 27.69 826.083 28.398 825.519 28.962C824.955 29.514 824.217 29.79 823.305 29.79ZM823.485 36H822.135L829.803 23.994H831.171L823.485 36ZM832.107 35.37C831.543 35.934 830.811 36.216 829.911 36.216C829.011 36.216 828.279 35.934 827.715 35.37C827.151 34.806 826.869 34.098 826.869 33.246C826.869 32.382 827.151 31.662 827.715 31.086C828.279 30.51 829.011 30.222 829.911 30.222C830.811 30.222 831.543 30.51 832.107 31.086C832.683 31.662 832.971 32.382 832.971 33.246C832.971 34.098 832.683 34.806 832.107 35.37ZM823.305 28.386C823.725 28.386 824.067 28.248 824.331 27.972C824.595 27.684 824.727 27.306 824.727 26.838C824.727 26.346 824.595 25.956 824.331 25.668C824.067 25.38 823.725 25.236 823.305 25.236C822.885 25.236 822.543 25.38 822.279 25.668C822.015 25.956 821.883 26.346 821.883 26.838C821.883 27.294 822.015 27.666 822.279 27.954C822.555 28.242 822.897 28.386 823.305 28.386ZM828.885 34.398C829.149 34.674 829.491 34.812 829.911 34.812C830.331 34.812 830.673 34.674 830.937 34.398C831.213 34.11 831.351 33.726 831.351 33.246C831.351 32.754 831.213 32.364 830.937 32.076C830.673 31.788 830.331 31.644 829.911 31.644C829.491 31.644 829.149 31.788 828.885 32.076C828.621 32.364 828.489 32.754 828.489 33.246C828.489 33.726 828.621 34.11 828.885 34.398Z" fill="url(#paint1_linear)" style="mix-blend-mode:multiply"/>
<path d="M153.5 0C157.62 4.91305e-08 161.694 0.863004 165.461 2.53342C169.227 4.20384 172.601 6.64462 175.367 9.69855C178.132 12.7525 180.227 16.3518 181.517 20.2647C182.807 24.1776 183.263 28.3173 182.855 32.4171L180.397 32.1728C180.77 28.4164 180.353 24.6233 179.171 21.0381C177.989 17.4528 176.07 14.1549 173.536 11.3567C171.002 8.55852 167.91 6.32213 164.459 4.79159C161.008 3.26105 157.275 2.47032 153.5 2.47032V0Z" fill="black" fill-opacity="0.5" style="mix-blend-mode:multiply"/>
<path d="M139.55 30.636H136.328V34.29H134.762V30.636H131.522V29.214H134.762V25.704H136.328V29.214H139.55V30.636ZM145.578 36.216C143.598 36.216 142.056 35.616 140.952 34.416L142.374 32.634C143.214 33.51 144.276 33.948 145.56 33.948C146.244 33.948 146.784 33.78 147.18 33.444C147.588 33.096 147.792 32.67 147.792 32.166C147.792 31.626 147.6 31.194 147.216 30.87C146.832 30.546 146.304 30.384 145.632 30.384C144.636 30.384 143.796 30.708 143.112 31.356L141.33 30.888V23.994H149.574V26.244H143.886V29.178C144.558 28.506 145.44 28.17 146.532 28.17C147.6 28.17 148.506 28.524 149.25 29.232C150.006 29.94 150.384 30.882 150.384 32.058C150.384 33.33 149.946 34.344 149.07 35.1C148.194 35.844 147.03 36.216 145.578 36.216ZM159.769 36H157.213V33.516H151.471V31.5L156.241 23.994H159.769V31.266H161.317V33.516H159.769V36ZM157.213 31.266V26.262L153.973 31.266H157.213ZM165.272 29.79C164.372 29.79 163.64 29.514 163.076 28.962C162.512 28.398 162.23 27.69 162.23 26.838C162.23 25.974 162.512 25.254 163.076 24.678C163.64 24.102 164.372 23.814 165.272 23.814C166.184 23.814 166.922 24.102 167.486 24.678C168.05 25.254 168.332 25.974 168.332 26.838C168.332 27.69 168.05 28.398 167.486 28.962C166.922 29.514 166.184 29.79 165.272 29.79ZM165.452 36H164.102L171.77 23.994H173.138L165.452 36ZM174.074 35.37C173.51 35.934 172.778 36.216 171.878 36.216C170.978 36.216 170.246 35.934 169.682 35.37C169.118 34.806 168.836 34.098 168.836 33.246C168.836 32.382 169.118 31.662 169.682 31.086C170.246 30.51 170.978 30.222 171.878 30.222C172.778 30.222 173.51 30.51 174.074 31.086C174.65 31.662 174.938 32.382 174.938 33.246C174.938 34.098 174.65 34.806 174.074 35.37ZM165.272 28.386C165.692 28.386 166.034 28.248 166.298 27.972C166.562 27.684 166.694 27.306 166.694 26.838C166.694 26.346 166.562 25.956 166.298 25.668C166.034 25.38 165.692 25.236 165.272 25.236C164.852 25.236 164.51 25.38 164.246 25.668C163.982 25.956 163.85 26.346 163.85 26.838C163.85 27.294 163.982 27.666 164.246 27.954C164.522 28.242 164.864 28.386 165.272 28.386ZM170.852 34.398C171.116 34.674 171.458 34.812 171.878 34.812C172.298 34.812 172.64 34.674 172.904 34.398C173.18 34.11 173.318 33.726 173.318 33.246C173.318 32.754 173.18 32.364 172.904 32.076C172.64 31.788 172.298 31.644 171.878 31.644C171.458 31.644 171.116 31.788 170.852 32.076C170.588 32.364 170.456 32.754 170.456 33.246C170.456 33.726 170.588 34.11 170.852 34.398Z" fill="black" fill-opacity="0.5" style="mix-blend-mode:multiply"/>
<path d="M639.324 15H637.322V7.412H632.912V15H630.924V5.662H639.324V15ZM643.152 15H641.164V5.662H645.532C646.512 5.662 647.278 5.95133 647.828 6.53C648.388 7.09933 648.668 7.81333 648.668 8.672C648.668 9.52133 648.388 10.2353 647.828 10.814C647.268 11.3927 646.503 11.682 645.532 11.682H643.152V15ZM645.266 9.932C645.668 9.932 645.994 9.82 646.246 9.596C646.508 9.36267 646.638 9.05467 646.638 8.672C646.638 8.28933 646.508 7.986 646.246 7.762C645.994 7.52867 645.668 7.412 645.266 7.412H643.152V9.932H645.266ZM651.819 15H649.901V5.662H651.889V11.696L656.215 5.662H658.259V15H656.271V8.742L651.819 15ZM668.5 15H666.498V11.08H662.088V15H660.1V5.662H662.088V9.33H666.498V5.662H668.5V15ZM672.216 15H669.934L672.034 11.444C671.465 11.3133 670.979 11.01 670.578 10.534C670.186 10.058 669.99 9.43733 669.99 8.672C669.99 7.78533 670.27 7.062 670.83 6.502C671.399 5.942 672.165 5.662 673.126 5.662H677.494V15H675.506V11.682H674.064L672.216 15ZM673.42 9.932H675.506V7.412H673.42C673.009 7.412 672.673 7.52867 672.412 7.762C672.151 7.986 672.02 8.28933 672.02 8.672C672.02 9.05467 672.151 9.36267 672.412 9.596C672.673 9.82 673.009 9.932 673.42 9.932ZM683.494 15H681.492V7.412H678.762V5.662H686.21V7.412H683.494V15ZM691.567 15.168C690.157 15.168 688.991 14.7153 688.067 13.81C687.152 12.8953 686.695 11.738 686.695 10.338C686.695 8.938 687.152 7.78533 688.067 6.88C688.991 5.96533 690.157 5.508 691.567 5.508C692.985 5.508 694.152 5.96067 695.067 6.866C695.991 7.77133 696.453 8.92867 696.453 10.338C696.453 11.7473 695.991 12.9047 695.067 13.81C694.152 14.7153 692.985 15.168 691.567 15.168ZM689.509 12.536C690.031 13.1147 690.717 13.404 691.567 13.404C692.416 13.404 693.102 13.1147 693.625 12.536C694.147 11.9573 694.409 11.2247 694.409 10.338C694.409 9.45133 694.147 8.71867 693.625 8.14C693.102 7.56133 692.416 7.272 691.567 7.272C690.717 7.272 690.031 7.56133 689.509 8.14C688.995 8.71867 688.739 9.45133 688.739 10.338C688.739 11.2247 688.995 11.9573 689.509 12.536ZM709.83 15H707.828V11.08H703.418V15H701.43V5.662H703.418V9.33H707.828V5.662H709.83V15ZM720.378 15H718.11L717.536 13.418H713.532L712.944 15H710.676L714.288 5.662H716.78L720.378 15ZM716.99 11.668L715.534 7.65L714.078 11.668H716.99ZM726.81 15H724.822V5.662H729.19C730.17 5.662 730.936 5.95133 731.486 6.53C732.046 7.09933 732.326 7.81333 732.326 8.672C732.326 9.52133 732.046 10.2353 731.486 10.814C730.926 11.3927 730.161 11.682 729.19 11.682H726.81V15ZM728.924 9.932C729.326 9.932 729.652 9.82 729.904 9.596C730.166 9.36267 730.296 9.05467 730.296 8.672C730.296 8.28933 730.166 7.986 729.904 7.762C729.652 7.52867 729.326 7.412 728.924 7.412H726.81V9.932H728.924ZM741.228 15H738.96L738.386 13.418H734.382L733.794 15H731.526L735.138 5.662H737.63L741.228 15ZM737.84 11.668L736.384 7.65L734.928 11.668H737.84ZM742.09 5.662H748.908V7.412H744.078V9.064H746.5C747.461 9.064 748.217 9.34867 748.768 9.918C749.319 10.4873 749.594 11.192 749.594 12.032C749.594 12.872 749.319 13.5767 748.768 14.146C748.217 14.7153 747.461 15 746.5 15H742.09V5.662ZM746.234 10.814H744.078V13.25H746.234C746.626 13.25 746.943 13.138 747.186 12.914C747.438 12.69 747.564 12.396 747.564 12.032C747.564 11.6587 747.438 11.3647 747.186 11.15C746.943 10.926 746.626 10.814 746.234 10.814ZM755.25 15.168C753.841 15.168 752.674 14.7153 751.75 13.81C750.836 12.8953 750.378 11.738 750.378 10.338C750.378 8.938 750.836 7.78533 751.75 6.88C752.674 5.96533 753.841 5.508 755.25 5.508C756.669 5.508 757.836 5.96067 758.75 6.866C759.674 7.77133 760.136 8.92867 760.136 10.338C760.136 11.7473 759.674 12.9047 758.75 13.81C757.836 14.7153 756.669 15.168 755.25 15.168ZM753.192 12.536C753.715 13.1147 754.401 13.404 755.25 13.404C756.1 13.404 756.786 13.1147 757.308 12.536C757.831 11.9573 758.092 11.2247 758.092 10.338C758.092 9.45133 757.831 8.71867 757.308 8.14C756.786 7.56133 756.1 7.272 755.25 7.272C754.401 7.272 753.715 7.56133 753.192 8.14C752.679 8.71867 752.422 9.45133 752.422 10.338C752.422 11.2247 752.679 11.9573 753.192 12.536ZM765.348 15H763.346V7.412H760.616V5.662H768.064V7.412H765.348V15ZM770.598 15.168C770.178 15.168 769.772 15.1073 769.38 14.986C768.997 14.8553 768.699 14.692 768.484 14.496L769.24 12.9C769.651 13.236 770.052 13.404 770.444 13.404C770.78 13.404 771.041 13.334 771.228 13.194C771.424 13.0447 771.615 12.7927 771.802 12.438L768.358 5.662H770.612L772.922 10.618L775.246 5.662H777.5L773.65 13.208C773.333 13.8427 772.936 14.328 772.46 14.664C771.993 15 771.373 15.168 770.598 15.168ZM780.028 10.072C779.804 10.296 779.538 10.408 779.23 10.408C778.922 10.408 778.656 10.296 778.432 10.072C778.208 9.848 778.096 9.582 778.096 9.274C778.096 8.966 778.208 8.7 778.432 8.476C778.656 8.252 778.922 8.14 779.23 8.14C779.538 8.14 779.804 8.252 780.028 8.476C780.252 8.7 780.364 8.966 780.364 9.274C780.364 9.582 780.252 9.848 780.028 10.072ZM780.028 14.818C779.804 15.042 779.538 15.154 779.23 15.154C778.922 15.154 778.656 15.042 778.432 14.818C778.208 14.594 778.096 14.328 778.096 14.02C778.096 13.712 778.208 13.446 778.432 13.222C778.656 12.998 778.922 12.886 779.23 12.886C779.538 12.886 779.804 12.998 780.028 13.222C780.252 13.446 780.364 13.712 780.364 14.02C780.364 14.328 780.252 14.594 780.028 14.818Z" fill="black" fill-opacity="0.5"/>
<path d="M15.444 52H8.172V37.24L4.104 41.272L0 36.988L9.18 27.988H15.444V52ZM34.6103 50.668C32.9783 51.844 31.0103 52.432 28.7063 52.432C26.4023 52.432 24.4223 51.844 22.7663 50.668C21.1343 49.468 19.9343 47.956 19.1663 46.132C18.4223 44.284 18.0503 42.244 18.0503 40.012C18.0503 36.532 18.9743 33.604 20.8223 31.228C22.6703 28.828 25.2983 27.628 28.7063 27.628C32.1143 27.628 34.7423 28.828 36.5903 31.228C38.4383 33.604 39.3623 36.532 39.3623 40.012C39.3623 42.244 38.9783 44.284 38.2103 46.132C37.4663 47.956 36.2663 49.468 34.6103 50.668ZM25.3583 40.012C25.3583 44.02 26.4743 46.024 28.7063 46.024C30.9383 46.024 32.0543 44.02 32.0543 40.012C32.0543 36.028 30.9383 34.036 28.7063 34.036C26.4743 34.036 25.3583 36.028 25.3583 40.012ZM51.2038 52.432C47.0038 52.432 43.6558 51.304 41.1598 49.048L45.0478 43.936C46.7278 45.328 48.7558 46.024 51.1318 46.024C52.2598 46.024 53.0998 45.832 53.6518 45.448C54.2278 45.064 54.5158 44.596 54.5158 44.044C54.5158 43.468 54.2518 43 53.7238 42.64C53.1958 42.256 52.4038 42.064 51.3478 42.064C49.5478 42.064 48.0598 42.616 46.8838 43.72L41.8798 42.568V27.988H60.2398V34.324H49.1518V37.708C50.4238 36.484 52.0918 35.872 54.1558 35.872C56.2918 35.872 58.1158 36.604 59.6278 38.068C61.1398 39.508 61.8958 41.392 61.8958 43.72C61.8958 46.384 60.9478 48.508 59.0518 50.092C57.1558 51.652 54.5398 52.432 51.2038 52.432ZM73.343 52.432C71.063 52.432 69.023 52.096 67.223 51.424C65.447 50.728 64.031 49.816 62.975 48.688L66.539 43.72C67.403 44.464 68.447 45.04 69.671 45.448C70.895 45.832 72.023 46.024 73.055 46.024C74.183 46.024 75.047 45.868 75.647 45.556C76.247 45.244 76.547 44.86 76.547 44.404C76.547 43.948 76.295 43.624 75.791 43.432C75.311 43.216 74.327 43.108 72.839 43.108C70.991 43.108 69.827 43.132 69.347 43.18V36.736C69.659 36.76 70.823 36.772 72.839 36.772C75.047 36.772 76.151 36.376 76.151 35.584C76.151 34.552 74.963 34.036 72.587 34.036C70.355 34.036 68.399 34.732 66.719 36.124L63.299 31.588C65.699 28.948 69.059 27.628 73.379 27.628C76.619 27.628 79.091 28.228 80.795 29.428C82.523 30.628 83.387 32.248 83.387 34.288C83.387 35.56 82.883 36.712 81.875 37.744C80.891 38.752 79.631 39.376 78.095 39.616C79.559 39.784 80.867 40.372 82.019 41.38C83.195 42.388 83.783 43.672 83.783 45.232C83.783 47.368 82.823 49.108 80.903 50.452C78.983 51.772 76.463 52.432 73.343 52.432ZM96.8577 52.432C93.0897 52.432 90.2337 51.292 88.2897 49.012C86.3697 46.732 85.4097 43.744 85.4097 40.048C85.4097 36.112 86.5497 33.064 88.8297 30.904C91.1337 28.72 94.1937 27.628 98.0097 27.628C100.962 27.628 103.458 28.324 105.498 29.716L102.438 35.332C101.214 34.468 99.7377 34.036 98.0097 34.036C96.6657 34.036 95.4537 34.396 94.3737 35.116C93.2937 35.836 92.7537 36.868 92.7537 38.212V38.284C94.0257 36.652 95.8857 35.836 98.3337 35.836C100.638 35.836 102.63 36.556 104.31 37.996C105.99 39.412 106.83 41.344 106.83 43.792C106.83 46.36 105.882 48.448 103.986 50.056C102.114 51.64 99.7377 52.432 96.8577 52.432ZM96.3897 46.024C97.2777 46.024 98.0097 45.832 98.5857 45.448C99.1617 45.064 99.4497 44.608 99.4497 44.08C99.4497 43.384 99.1017 42.868 98.4057 42.532C97.7337 42.172 96.9657 41.992 96.1017 41.992C94.6857 41.992 93.5577 42.316 92.7177 42.964C92.7897 43.852 93.1257 44.584 93.7257 45.16C94.3257 45.736 95.2137 46.024 96.3897 46.024Z" fill="black" fill-opacity="0.5"/>
<path d="M405.8 52.432C403.52 52.432 401.48 52.096 399.68 51.424C397.904 50.728 396.488 49.816 395.432 48.688L398.996 43.72C399.86 44.464 400.904 45.04 402.128 45.448C403.352 45.832 404.48 46.024 405.512 46.024C406.64 46.024 407.504 45.868 408.104 45.556C408.704 45.244 409.004 44.86 409.004 44.404C409.004 43.948 408.752 43.624 408.248 43.432C407.768 43.216 406.784 43.108 405.296 43.108C403.448 43.108 402.284 43.132 401.804 43.18V36.736C402.116 36.76 403.28 36.772 405.296 36.772C407.504 36.772 408.608 36.376 408.608 35.584C408.608 34.552 407.42 34.036 405.044 34.036C402.812 34.036 400.856 34.732 399.176 36.124L395.756 31.588C398.156 28.948 401.516 27.628 405.836 27.628C409.076 27.628 411.548 28.228 413.252 29.428C414.98 30.628 415.844 32.248 415.844 34.288C415.844 35.56 415.34 36.712 414.332 37.744C413.348 38.752 412.088 39.376 410.552 39.616C412.016 39.784 413.324 40.372 414.476 41.38C415.652 42.388 416.24 43.672 416.24 45.232C416.24 47.368 415.28 49.108 413.36 50.452C411.44 51.772 408.92 52.432 405.8 52.432ZM428.415 52.432C424.215 52.432 420.867 51.304 418.371 49.048L422.259 43.936C423.939 45.328 425.967 46.024 428.343 46.024C429.471 46.024 430.311 45.832 430.863 45.448C431.439 45.064 431.727 44.596 431.727 44.044C431.727 43.468 431.463 43 430.935 42.64C430.407 42.256 429.615 42.064 428.559 42.064C426.759 42.064 425.271 42.616 424.095 43.72L419.091 42.568V27.988H437.451V34.324H426.363V37.708C427.635 36.484 429.303 35.872 431.367 35.872C433.503 35.872 435.327 36.604 436.839 38.068C438.351 39.508 439.107 41.392 439.107 43.72C439.107 46.384 438.159 48.508 436.263 50.092C434.367 51.652 431.751 52.432 428.415 52.432ZM450.554 52.432C448.274 52.432 446.234 52.096 444.434 51.424C442.658 50.728 441.242 49.816 440.186 48.688L443.75 43.72C444.614 44.464 445.658 45.04 446.882 45.448C448.106 45.832 449.234 46.024 450.266 46.024C451.394 46.024 452.258 45.868 452.858 45.556C453.458 45.244 453.758 44.86 453.758 44.404C453.758 43.948 453.506 43.624 453.002 43.432C452.522 43.216 451.538 43.108 450.05 43.108C448.202 43.108 447.038 43.132 446.558 43.18V36.736C446.87 36.76 448.034 36.772 450.05 36.772C452.258 36.772 453.362 36.376 453.362 35.584C453.362 34.552 452.174 34.036 449.798 34.036C447.566 34.036 445.61 34.732 443.93 36.124L440.51 31.588C442.91 28.948 446.27 27.628 450.59 27.628C453.83 27.628 456.302 28.228 458.006 29.428C459.734 30.628 460.598 32.248 460.598 34.288C460.598 35.56 460.094 36.712 459.086 37.744C458.102 38.752 456.842 39.376 455.306 39.616C456.77 39.784 458.078 40.372 459.23 41.38C460.406 42.388 460.994 43.672 460.994 45.232C460.994 47.368 460.034 49.108 458.114 50.452C456.194 51.772 453.674 52.432 450.554 52.432ZM479.181 50.668C477.549 51.844 475.581 52.432 473.277 52.432C470.973 52.432 468.993 51.844 467.337 50.668C465.705 49.468 464.505 47.956 463.737 46.132C462.993 44.284 462.621 42.244 462.621 40.012C462.621 36.532 463.545 33.604 465.393 31.228C467.241 28.828 469.869 27.628 473.277 27.628C476.685 27.628 479.313 28.828 481.161 31.228C483.009 33.604 483.933 36.532 483.933 40.012C483.933 42.244 483.549 44.284 482.781 46.132C482.037 47.956 480.837 49.468 479.181 50.668ZM469.929 40.012C469.929 44.02 471.045 46.024 473.277 46.024C475.509 46.024 476.625 44.02 476.625 40.012C476.625 36.028 475.509 34.036 473.277 34.036C471.045 34.036 469.929 36.028 469.929 40.012ZM500.022 52H492.75V37.24L488.682 41.272L484.578 36.988L493.758 27.988H500.022V52Z" fill="black" fill-opacity="0.5"/>
<path d="M650.592 55H640.896V35.32L635.472 40.696L630 34.984L642.24 22.984H650.592V55ZM673.795 55H664.099V35.32L658.675 40.696L653.203 34.984L665.443 22.984H673.795V55ZM691.334 55.576C685.734 55.576 681.27 54.072 677.942 51.064L683.126 44.248C685.366 46.104 688.07 47.032 691.238 47.032C692.742 47.032 693.862 46.776 694.598 46.264C695.366 45.752 695.75 45.128 695.75 44.392C695.75 43.624 695.398 43 694.694 42.52C693.99 42.008 692.934 41.752 691.526 41.752C689.126 41.752 687.142 42.488 685.574 43.96L678.902 42.424V22.984H703.382V31.432H688.598V35.944C690.294 34.312 692.518 33.496 695.27 33.496C698.118 33.496 700.55 34.472 702.566 36.424C704.582 38.344 705.59 40.856 705.59 43.96C705.59 47.512 704.326 50.344 701.798 52.456C699.27 54.536 695.782 55.576 691.334 55.576Z" fill="url(#paint2_linear)"/>
<path d="M650.592 55V56H651.592V55H650.592ZM640.896 55H639.896V56H640.896V55ZM640.896 35.32H641.896V32.9209L640.192 34.6098L640.896 35.32ZM635.472 40.696L634.75 41.3878L635.454 42.1223L636.176 41.4062L635.472 40.696ZM630 34.984L629.3 34.2699L628.594 34.962L629.278 35.6758L630 34.984ZM642.24 22.984V21.984H641.832L641.54 22.2699L642.24 22.984ZM650.592 22.984H651.592V21.984H650.592V22.984ZM650.592 54H640.896V56H650.592V54ZM641.896 55V35.32H639.896V55H641.896ZM640.192 34.6098L634.768 39.9858L636.176 41.4062L641.6 36.0302L640.192 34.6098ZM636.194 40.0042L630.722 34.2922L629.278 35.6758L634.75 41.3878L636.194 40.0042ZM630.7 35.6981L642.94 23.6981L641.54 22.2699L629.3 34.2699L630.7 35.6981ZM642.24 23.984H650.592V21.984H642.24V23.984ZM649.592 22.984V55H651.592V22.984H649.592ZM673.795 55V56H674.795V55H673.795ZM664.099 55H663.099V56H664.099V55ZM664.099 35.32H665.099V32.9209L663.395 34.6098L664.099 35.32ZM658.675 40.696L657.953 41.3878L658.657 42.1223L659.379 41.4062L658.675 40.696ZM653.203 34.984L652.503 34.2699L651.797 34.962L652.481 35.6758L653.203 34.984ZM665.443 22.984V21.984H665.035L664.743 22.2699L665.443 22.984ZM673.795 22.984H674.795V21.984H673.795V22.984ZM673.795 54H664.099V56H673.795V54ZM665.099 55V35.32H663.099V55H665.099ZM663.395 34.6098L657.971 39.9858L659.379 41.4062L664.803 36.0302L663.395 34.6098ZM659.397 40.0042L653.925 34.2922L652.481 35.6758L657.953 41.3878L659.397 40.0042ZM653.903 35.6981L666.143 23.6981L664.743 22.2699L652.503 34.2699L653.903 35.6981ZM665.443 23.984H673.795V21.984H665.443V23.984ZM672.795 22.984V55H674.795V22.984H672.795ZM677.942 51.064L677.146 50.4586L676.59 51.1899L677.272 51.8059L677.942 51.064ZM683.126 44.248L683.764 43.478L682.961 42.8128L682.33 43.6426L683.126 44.248ZM694.598 46.264L694.044 45.4319L694.035 45.4374L694.027 45.4431L694.598 46.264ZM694.694 42.52L694.106 43.3287L694.118 43.3377L694.131 43.3462L694.694 42.52ZM685.574 43.96L685.35 44.9345L685.87 45.0542L686.259 44.6891L685.574 43.96ZM678.902 42.424H677.902V43.2199L678.678 43.3985L678.902 42.424ZM678.902 22.984V21.984H677.902V22.984H678.902ZM703.382 22.984H704.382V21.984H703.382V22.984ZM703.382 31.432V32.432H704.382V31.432H703.382ZM688.598 31.432V30.432H687.598V31.432H688.598ZM688.598 35.944H687.598V38.2941L689.292 36.6646L688.598 35.944ZM702.566 36.424L701.871 37.1424L701.877 37.1481L702.566 36.424ZM701.798 52.456L702.434 53.2282L702.439 53.2234L701.798 52.456ZM691.334 54.576C685.918 54.576 681.714 53.1255 678.613 50.3221L677.272 51.8059C680.826 55.0185 685.551 56.576 691.334 56.576V54.576ZM678.738 51.6694L683.922 44.8534L682.33 43.6426L677.146 50.4586L678.738 51.6694ZM682.488 45.018C684.924 47.0363 687.86 48.032 691.238 48.032V46.032C688.281 46.032 685.808 45.1717 683.764 43.478L682.488 45.018ZM691.238 48.032C692.822 48.032 694.186 47.7687 695.169 47.0849L694.027 45.4431C693.538 45.7833 692.663 46.032 691.238 46.032V48.032ZM695.153 47.0961C696.119 46.4519 696.75 45.5483 696.75 44.392H694.75C694.75 44.7077 694.613 45.0521 694.044 45.4319L695.153 47.0961ZM696.75 44.392C696.75 43.2531 696.2 42.3362 695.258 41.6938L694.131 43.3462C694.597 43.6638 694.75 43.9949 694.75 44.392H696.75ZM695.282 41.7113C694.331 41.0193 693.026 40.752 691.526 40.752V42.752C692.843 42.752 693.65 42.9967 694.106 43.3287L695.282 41.7113ZM691.526 40.752C688.904 40.752 686.665 41.5642 684.89 43.2309L686.259 44.6891C687.619 43.4118 689.349 42.752 691.526 42.752V40.752ZM685.799 42.9855L679.127 41.4495L678.678 43.3985L685.35 44.9345L685.799 42.9855ZM679.902 42.424V22.984H677.902V42.424H679.902ZM678.902 23.984H703.382V21.984H678.902V23.984ZM702.382 22.984V31.432H704.382V22.984H702.382ZM703.382 30.432H688.598V32.432H703.382V30.432ZM687.598 31.432V35.944H689.598V31.432H687.598ZM689.292 36.6646C690.77 35.242 692.73 34.496 695.27 34.496V32.496C692.307 32.496 689.818 33.382 687.905 35.2234L689.292 36.6646ZM695.27 34.496C697.863 34.496 700.044 35.374 701.871 37.1424L703.262 35.7056C701.056 33.57 698.374 32.496 695.27 32.496V34.496ZM701.877 37.1481C703.671 38.8567 704.59 41.095 704.59 43.96H706.59C706.59 40.617 705.494 37.8313 703.256 35.6999L701.877 37.1481ZM704.59 43.96C704.59 47.2421 703.438 49.7829 701.157 51.6886L702.439 53.2234C705.214 50.9051 706.59 47.7819 706.59 43.96H704.59ZM701.163 51.6838C698.869 53.5712 695.633 54.576 691.334 54.576V56.576C695.931 56.576 699.672 55.5008 702.434 53.2282L701.163 51.6838Z" fill="white"/>
<defs>
<linearGradient id="paint0_linear" x1="783" y1="29.0003" x2="842" y2="29.0003" gradientUnits="userSpaceOnUse">
<stop stop-color="#C5251F"/>
<stop offset="1" stop-color="#00C2FF"/>
</linearGradient>
<linearGradient id="paint1_linear" x1="790" y1="28.8306" x2="835" y2="28.8306" gradientUnits="userSpaceOnUse">
<stop stop-color="#C5251F"/>
<stop offset="1" stop-color="#00C2FF"/>
</linearGradient>
<linearGradient id="paint2_linear" x1="735.5" y1="48.4999" x2="625" y2="48.4998" gradientUnits="userSpaceOnUse">
<stop stop-color="#C5251F"/>
<stop offset="1" stop-color="#00C2FF"/>
</linearGradient>
</defs>
</svg>
