<svg width="283" height="35" viewBox="0 0 283 35" fill="none" xmlns="http://www.w3.org/2000/svg">
<g filter="url(#filter0_i)">
<rect x="1" y="1" width="315" height="33" rx="7" fill="white"/>
</g>
<rect x="0.5" y="0.5" width="316" height="34" rx="7.5" stroke="#BB635F"/>
<path fill-rule="evenodd" clip-rule="evenodd" d="M57 14H61V10H57V14ZM63 26H67V22H63V26ZM57 26H61V22H57V26ZM57 20H61V16H57V20ZM63 20H67V16H63V20ZM69 10V14H73V10H69ZM63 14H67V10H63V14ZM69 20H73V16H69V20ZM69 26H73V22H69V26Z" fill="black" fill-opacity="0.5"/>
<path fill-rule="evenodd" clip-rule="evenodd" d="M28 24H46V22H28V24ZM28 19H46V17H28V19ZM28 12V14H46V12H28Z" fill="black" fill-opacity="0.5"/>
<path fill-rule="evenodd" clip-rule="evenodd" d="M161.59 22L157 26.58L152.41 22L151 23.41L157 29.41L163 23.41L161.59 22Z" fill="#BDBDBD"/>
<path d="M137.82 16.12C136.84 16.12 136.043 15.7933 135.43 15.14C134.817 14.4867 134.51 13.6633 134.51 12.67C134.51 11.6767 134.817 10.8533 135.43 10.2C136.043 9.54667 136.84 9.22 137.82 9.22C138.793 9.22 139.587 9.54667 140.2 10.2C140.82 10.8533 141.13 11.6767 141.13 12.67C141.13 13.6633 140.82 14.4867 140.2 15.14C139.587 15.7933 138.793 16.12 137.82 16.12ZM137.82 15.38C138.553 15.38 139.143 15.1267 139.59 14.62C140.043 14.1067 140.27 13.4567 140.27 12.67C140.27 11.8767 140.043 11.2267 139.59 10.72C139.143 10.2133 138.553 9.96 137.82 9.96C137.08 9.96 136.487 10.2133 136.04 10.72C135.593 11.2267 135.37 11.8767 135.37 12.67C135.37 13.4567 135.593 14.1067 136.04 14.62C136.487 15.1267 137.08 15.38 137.82 15.38ZM143.326 14.91C143.62 15.27 144.013 15.45 144.506 15.45C145 15.45 145.39 15.27 145.676 14.91C145.963 14.5433 146.106 14.0967 146.106 13.57C146.106 13.0567 145.963 12.62 145.676 12.26C145.39 11.9 145 11.72 144.506 11.72C144.013 11.72 143.62 11.9 143.326 12.26C143.04 12.62 142.896 13.0567 142.896 13.57C142.896 14.0967 143.04 14.5433 143.326 14.91ZM144.506 16.12C143.78 16.12 143.2 15.8633 142.766 15.35C142.333 14.8367 142.116 14.1733 142.116 13.36C142.116 12.2133 142.323 11.3667 142.736 10.82C143.15 10.2667 143.786 9.93333 144.646 9.82C145.16 9.74 145.513 9.66333 145.706 9.59C145.906 9.51667 146.006 9.43 146.006 9.33H146.736C146.736 9.51667 146.68 9.68 146.566 9.82C146.453 9.95333 146.29 10.06 146.076 10.14C145.87 10.22 145.673 10.2833 145.486 10.33C145.306 10.37 145.09 10.4067 144.836 10.44C144.17 10.5333 143.686 10.7167 143.386 10.99C143.093 11.2633 142.9 11.6267 142.806 12.08C143.246 11.3933 143.853 11.05 144.626 11.05C145.293 11.05 145.836 11.2933 146.256 11.78C146.676 12.2667 146.886 12.8633 146.886 13.57C146.886 14.29 146.67 14.8967 146.236 15.39C145.803 15.8767 145.226 16.12 144.506 16.12ZM148.888 16H148.008L149.298 14.1C148.931 14.0533 148.631 13.9 148.398 13.64C148.171 13.38 148.058 13.05 148.058 12.65C148.058 12.2233 148.195 11.87 148.468 11.59C148.741 11.31 149.115 11.17 149.588 11.17H152.138V16H151.388V14.13H150.068L148.888 16ZM149.668 13.47H151.388V11.83H149.668C149.408 11.83 149.201 11.9067 149.048 12.06C148.901 12.2067 148.828 12.4033 148.828 12.65C148.828 12.8967 148.901 13.0967 149.048 13.25C149.195 13.3967 149.401 13.47 149.668 13.47ZM155.347 16.12C154.42 16.12 153.693 15.8567 153.167 15.33L153.537 14.85C153.99 15.2833 154.593 15.5 155.347 15.5C155.78 15.5 156.123 15.4233 156.377 15.27C156.637 15.1167 156.767 14.9133 156.767 14.66C156.767 14.1267 156.26 13.86 155.247 13.86H154.167V13.25H155.247C155.667 13.25 156.01 13.1833 156.277 13.05C156.543 12.91 156.677 12.7067 156.677 12.44C156.677 12.2133 156.543 12.03 156.277 11.89C156.01 11.7433 155.673 11.67 155.267 11.67C154.593 11.67 154.053 11.8767 153.647 12.29L153.257 11.83C153.757 11.3167 154.417 11.06 155.237 11.06C155.897 11.0533 156.43 11.1667 156.837 11.4C157.25 11.6267 157.457 11.9433 157.457 12.35C157.457 12.6833 157.32 12.9533 157.047 13.16C156.78 13.3667 156.483 13.49 156.157 13.53C156.497 13.5567 156.813 13.67 157.107 13.87C157.407 14.07 157.557 14.35 157.557 14.71C157.557 15.1233 157.357 15.4633 156.957 15.73C156.563 15.99 156.027 16.12 155.347 16.12ZM162.543 16H161.793V15.45C161.387 15.8967 160.853 16.12 160.193 16.12C159.747 16.12 159.353 15.9767 159.013 15.69C158.673 15.4033 158.503 15.0133 158.503 14.52C158.503 14.0133 158.67 13.6233 159.003 13.35C159.343 13.07 159.74 12.93 160.193 12.93C160.88 12.93 161.413 13.15 161.793 13.59V12.72C161.793 12.4 161.68 12.15 161.453 11.97C161.227 11.79 160.933 11.7 160.573 11.7C160.007 11.7 159.513 11.9233 159.093 12.37L158.743 11.85C159.257 11.3167 159.9 11.05 160.673 11.05C161.227 11.05 161.677 11.1833 162.023 11.45C162.37 11.7167 162.543 12.1267 162.543 12.68V16ZM160.463 15.58C161.063 15.58 161.507 15.38 161.793 14.98V14.07C161.507 13.67 161.063 13.47 160.463 13.47C160.117 13.47 159.83 13.57 159.603 13.77C159.383 13.9633 159.273 14.2167 159.273 14.53C159.273 14.8367 159.383 15.09 159.603 15.29C159.83 15.4833 160.117 15.58 160.463 15.58ZM165.677 16H164.927V11.83H163.527V11.17H167.087V11.83H165.677V16ZM170.25 16.12C169.53 16.12 168.94 15.8867 168.48 15.42C168.02 14.9467 167.79 14.3333 167.79 13.58C167.79 12.8733 168.017 12.2767 168.47 11.79C168.924 11.2967 169.49 11.05 170.17 11.05C170.884 11.05 171.447 11.2967 171.86 11.79C172.28 12.2767 172.49 12.8933 172.49 13.64V13.83H168.58C168.614 14.3033 168.787 14.7 169.1 15.02C169.414 15.34 169.82 15.5 170.32 15.5C170.92 15.5 171.417 15.2967 171.81 14.89L172.17 15.38C171.677 15.8733 171.037 16.12 170.25 16.12ZM171.75 13.28C171.744 12.8667 171.604 12.4967 171.33 12.17C171.057 11.8367 170.667 11.67 170.16 11.67C169.68 11.67 169.3 11.8333 169.02 12.16C168.747 12.4867 168.6 12.86 168.58 13.28H171.75ZM173.135 16.12V15.5C173.362 15.5 173.548 15.35 173.695 15.05C173.842 14.75 173.962 14.25 174.055 13.55L174.365 11.17H177.725V16H176.975V11.83H175.025L174.805 13.64C174.698 14.5267 174.512 15.1633 174.245 15.55C173.978 15.93 173.608 16.12 173.135 16.12ZM179.223 11.17H179.973V13.04H181.783C182.263 13.04 182.636 13.1833 182.903 13.47C183.169 13.75 183.303 14.1 183.303 14.52C183.303 14.94 183.166 15.2933 182.893 15.58C182.626 15.86 182.256 16 181.783 16H179.223V11.17ZM181.703 13.7H179.973V15.34H181.703C181.969 15.34 182.173 15.2667 182.313 15.12C182.459 14.9667 182.533 14.7667 182.533 14.52C182.533 14.2733 182.459 14.0767 182.313 13.93C182.173 13.7767 181.969 13.7 181.703 13.7ZM185.197 16H184.447V11.17H185.197V13.18H187.717V11.17H188.467V16H187.717V13.84H185.197V16ZM189.965 11.17H190.715V13.04H192.525C193.005 13.04 193.378 13.1833 193.645 13.47C193.912 13.75 194.045 14.1 194.045 14.52C194.045 14.94 193.908 15.2933 193.635 15.58C193.368 15.86 192.998 16 192.525 16H189.965V11.17ZM192.445 13.7H190.715V15.34H192.445C192.712 15.34 192.915 15.2667 193.055 15.12C193.202 14.9667 193.275 14.7667 193.275 14.52C193.275 14.2733 193.202 14.0767 193.055 13.93C192.915 13.7767 192.712 13.7 192.445 13.7ZM195.585 16H194.835V11.17H195.585V16ZM199.264 16.12C198.544 16.12 197.954 15.8867 197.494 15.42C197.034 14.9467 196.804 14.3333 196.804 13.58C196.804 12.8733 197.031 12.2767 197.484 11.79C197.937 11.2967 198.504 11.05 199.184 11.05C199.897 11.05 200.461 11.2967 200.874 11.79C201.294 12.2767 201.504 12.8933 201.504 13.64V13.83H197.594C197.627 14.3033 197.801 14.7 198.114 15.02C198.427 15.34 198.834 15.5 199.334 15.5C199.934 15.5 200.431 15.2967 200.824 14.89L201.184 15.38C200.691 15.8733 200.051 16.12 199.264 16.12ZM200.764 13.28C200.757 12.8667 200.617 12.4967 200.344 12.17C200.071 11.8367 199.681 11.67 199.174 11.67C198.694 11.67 198.314 11.8333 198.034 12.16C197.761 12.4867 197.614 12.86 197.594 13.28H200.764ZM207.007 16.12C206.08 16.12 205.354 15.8567 204.827 15.33L205.197 14.85C205.65 15.2833 206.254 15.5 207.007 15.5C207.44 15.5 207.784 15.4233 208.037 15.27C208.297 15.1167 208.427 14.9133 208.427 14.66C208.427 14.1267 207.92 13.86 206.907 13.86H205.827V13.25H206.907C207.327 13.25 207.67 13.1833 207.937 13.05C208.204 12.91 208.337 12.7067 208.337 12.44C208.337 12.2133 208.204 12.03 207.937 11.89C207.67 11.7433 207.334 11.67 206.927 11.67C206.254 11.67 205.714 11.8767 205.307 12.29L204.917 11.83C205.417 11.3167 206.077 11.06 206.897 11.06C207.557 11.0533 208.09 11.1667 208.497 11.4C208.91 11.6267 209.117 11.9433 209.117 12.35C209.117 12.6833 208.98 12.9533 208.707 13.16C208.44 13.3667 208.144 13.49 207.817 13.53C208.157 13.5567 208.474 13.67 208.767 13.87C209.067 14.07 209.217 14.35 209.217 14.71C209.217 15.1233 209.017 15.4633 208.617 15.73C208.224 15.99 207.687 16.12 207.007 16.12ZM214.204 16H213.454V15.45C213.047 15.8967 212.514 16.12 211.854 16.12C211.407 16.12 211.014 15.9767 210.674 15.69C210.334 15.4033 210.164 15.0133 210.164 14.52C210.164 14.0133 210.33 13.6233 210.664 13.35C211.004 13.07 211.4 12.93 211.854 12.93C212.54 12.93 213.074 13.15 213.454 13.59V12.72C213.454 12.4 213.34 12.15 213.114 11.97C212.887 11.79 212.594 11.7 212.234 11.7C211.667 11.7 211.174 11.9233 210.754 12.37L210.404 11.85C210.917 11.3167 211.56 11.05 212.334 11.05C212.887 11.05 213.337 11.1833 213.684 11.45C214.03 11.7167 214.204 12.1267 214.204 12.68V16ZM212.124 15.58C212.724 15.58 213.167 15.38 213.454 14.98V14.07C213.167 13.67 212.724 13.47 212.124 13.47C211.777 13.47 211.49 13.57 211.264 13.77C211.044 13.9633 210.934 14.2167 210.934 14.53C210.934 14.8367 211.044 15.09 211.264 15.29C211.49 15.4833 211.777 15.58 212.124 15.58ZM215.137 17.23V15.38C215.384 15.3333 215.577 15.1867 215.717 14.94C215.857 14.6867 215.97 14.2233 216.057 13.55L216.367 11.17H219.727V15.34H220.287V17.23H219.537V16H215.887V17.23H215.137ZM217.027 11.83L216.807 13.64C216.694 14.4867 216.46 15.0533 216.107 15.34H218.977V11.83H217.027ZM225.083 16H224.333V15.45C223.926 15.8967 223.393 16.12 222.733 16.12C222.286 16.12 221.893 15.9767 221.553 15.69C221.213 15.4033 221.043 15.0133 221.043 14.52C221.043 14.0133 221.209 13.6233 221.543 13.35C221.883 13.07 222.279 12.93 222.733 12.93C223.419 12.93 223.953 13.15 224.333 13.59V12.72C224.333 12.4 224.219 12.15 223.993 11.97C223.766 11.79 223.473 11.7 223.113 11.7C222.546 11.7 222.053 11.9233 221.633 12.37L221.283 11.85C221.796 11.3167 222.439 11.05 223.213 11.05C223.766 11.05 224.216 11.1833 224.563 11.45C224.909 11.7167 225.083 12.1267 225.083 12.68V16ZM223.003 15.58C223.603 15.58 224.046 15.38 224.333 14.98V14.07C224.046 13.67 223.603 13.47 223.003 13.47C222.656 13.47 222.369 13.57 222.143 13.77C221.923 13.9633 221.812 14.2167 221.812 14.53C221.812 14.8367 221.923 15.09 222.143 15.29C222.369 15.4833 222.656 15.58 223.003 15.58ZM226.486 11.17H227.236V12.53C227.236 12.9633 227.336 13.2633 227.536 13.43C227.736 13.5967 228.046 13.68 228.466 13.68C228.986 13.68 229.413 13.5933 229.746 13.42V11.17H230.496V16H229.746V14.03C229.319 14.2433 228.829 14.35 228.276 14.35C227.649 14.35 227.193 14.2233 226.906 13.97C226.626 13.7167 226.486 13.3133 226.486 12.76V11.17ZM232.716 16H231.996V11.17H232.746V14.86L235.276 11.17H236.016V16H235.266V12.24L232.716 16Z" fill="url(#paint0_linear)" style="mix-blend-mode:multiply"/>
<path d="M171.845 27H171.095V22.83H168.575V27H167.825V22.17H171.845V27ZM177.183 26.39C176.749 26.8767 176.173 27.12 175.453 27.12C174.733 27.12 174.153 26.8767 173.713 26.39C173.279 25.9033 173.063 25.3 173.063 24.58C173.063 23.86 173.279 23.26 173.713 22.78C174.153 22.2933 174.733 22.05 175.453 22.05C176.173 22.05 176.749 22.2933 177.183 22.78C177.623 23.26 177.843 23.86 177.843 24.58C177.843 25.3 177.623 25.9033 177.183 26.39ZM174.273 25.91C174.566 26.27 174.959 26.45 175.453 26.45C175.946 26.45 176.336 26.27 176.623 25.91C176.909 25.5433 177.053 25.1 177.053 24.58C177.053 24.06 176.909 23.62 176.623 23.26C176.336 22.9 175.946 22.72 175.453 22.72C174.959 22.72 174.566 22.9033 174.273 23.27C173.986 23.63 173.843 24.0667 173.843 24.58C173.843 25.1 173.986 25.5433 174.273 25.91ZM178.495 28.23V26.38C178.742 26.3333 178.935 26.1867 179.075 25.94C179.215 25.6867 179.329 25.2233 179.415 24.55L179.725 22.17L183.085 22.17V26.34L183.645 26.34V28.23L182.895 28.23V27H179.245V28.23H178.495ZM180.385 22.83L180.165 24.64C180.052 25.4867 179.819 26.0533 179.465 26.34H182.335V22.83L180.385 22.83ZM187.051 27.12C186.371 27.12 185.828 26.8367 185.421 26.27V28.84H184.671V22.17H185.421V22.89C185.601 22.6367 185.834 22.4333 186.121 22.28C186.408 22.1267 186.718 22.05 187.051 22.05C187.691 22.05 188.208 22.28 188.601 22.74C189.001 23.1933 189.201 23.8067 189.201 24.58C189.201 25.3533 189.001 25.97 188.601 26.43C188.208 26.89 187.691 27.12 187.051 27.12ZM186.861 26.45C187.334 26.45 187.711 26.2767 187.991 25.93C188.271 25.5767 188.411 25.1267 188.411 24.58C188.411 24.0333 188.271 23.5867 187.991 23.24C187.711 22.8933 187.334 22.72 186.861 22.72C186.574 22.72 186.294 22.7967 186.021 22.95C185.754 23.0967 185.554 23.2767 185.421 23.49V25.67C185.554 25.89 185.754 26.0767 186.021 26.23C186.294 26.3767 186.574 26.45 186.861 26.45ZM194.234 26.39C193.8 26.8767 193.224 27.12 192.504 27.12C191.784 27.12 191.204 26.8767 190.764 26.39C190.33 25.9033 190.114 25.3 190.114 24.58C190.114 23.86 190.33 23.26 190.764 22.78C191.204 22.2933 191.784 22.05 192.504 22.05C193.224 22.05 193.8 22.2933 194.234 22.78C194.674 23.26 194.894 23.86 194.894 24.58C194.894 25.3 194.674 25.9033 194.234 26.39ZM191.324 25.91C191.617 26.27 192.01 26.45 192.504 26.45C192.997 26.45 193.387 26.27 193.674 25.91C193.96 25.5433 194.104 25.1 194.104 24.58C194.104 24.06 193.96 23.62 193.674 23.26C193.387 22.9 192.997 22.72 192.504 22.72C192.01 22.72 191.617 22.9033 191.324 23.27C191.037 23.63 190.894 24.0667 190.894 24.58C190.894 25.1 191.037 25.5433 191.324 25.91ZM197.046 25.91C197.34 26.27 197.733 26.45 198.226 26.45C198.72 26.45 199.11 26.27 199.396 25.91C199.683 25.5433 199.826 25.0967 199.826 24.57C199.826 24.0567 199.683 23.62 199.396 23.26C199.11 22.9 198.72 22.72 198.226 22.72C197.733 22.72 197.34 22.9 197.046 23.26C196.76 23.62 196.616 24.0567 196.616 24.57C196.616 25.0967 196.76 25.5433 197.046 25.91ZM198.226 27.12C197.5 27.12 196.92 26.8633 196.486 26.35C196.053 25.8367 195.836 25.1733 195.836 24.36C195.836 23.2133 196.043 22.3667 196.456 21.82C196.87 21.2667 197.506 20.9333 198.366 20.82C198.88 20.74 199.233 20.6633 199.426 20.59C199.626 20.5167 199.726 20.43 199.726 20.33H200.456C200.456 20.5167 200.4 20.68 200.286 20.82C200.173 20.9533 200.01 21.06 199.796 21.14C199.59 21.22 199.393 21.2833 199.206 21.33C199.026 21.37 198.81 21.4067 198.556 21.44C197.89 21.5333 197.406 21.7167 197.106 21.99C196.813 22.2633 196.62 22.6267 196.526 23.08C196.966 22.3933 197.573 22.05 198.346 22.05C199.013 22.05 199.556 22.2933 199.976 22.78C200.396 23.2667 200.606 23.8633 200.606 24.57C200.606 25.29 200.39 25.8967 199.956 26.39C199.523 26.8767 198.946 27.12 198.226 27.12ZM202.638 27H201.888V22.17H202.638V24.18H205.158V22.17H205.908V27H205.158V24.84H202.638V27ZM209.585 27.12C208.865 27.12 208.275 26.8867 207.815 26.42C207.355 25.9467 207.125 25.3333 207.125 24.58C207.125 23.8733 207.352 23.2767 207.805 22.79C208.259 22.2967 208.825 22.05 209.505 22.05C210.219 22.05 210.782 22.2967 211.195 22.79C211.615 23.2767 211.825 23.8933 211.825 24.64V24.83H207.915C207.949 25.3033 208.122 25.7 208.435 26.02C208.749 26.34 209.155 26.5 209.655 26.5C210.255 26.5 210.752 26.2967 211.145 25.89L211.505 26.38C211.012 26.8733 210.372 27.12 209.585 27.12ZM211.085 24.28C211.079 23.8667 210.939 23.4967 210.665 23.17C210.392 22.8367 210.002 22.67 209.495 22.67C209.015 22.67 208.635 22.8333 208.355 23.16C208.082 23.4867 207.935 23.86 207.915 24.28H211.085ZM215.22 27.12C214.5 27.12 213.91 26.8867 213.45 26.42C212.99 25.9467 212.76 25.3333 212.76 24.58C212.76 23.8733 212.987 23.2767 213.44 22.79C213.893 22.2967 214.46 22.05 215.14 22.05C215.853 22.05 216.417 22.2967 216.83 22.79C217.25 23.2767 217.46 23.8933 217.46 24.64V24.83H213.55C213.583 25.3033 213.757 25.7 214.07 26.02C214.383 26.34 214.79 26.5 215.29 26.5C215.89 26.5 216.387 26.2967 216.78 25.89L217.14 26.38C216.647 26.8733 216.007 27.12 215.22 27.12ZM216.72 24.28C216.713 23.8667 216.573 23.4967 216.3 23.17C216.027 22.8367 215.637 22.67 215.13 22.67C214.65 22.67 214.27 22.8333 213.99 23.16C213.717 23.4867 213.57 23.86 213.55 24.28H216.72Z" fill="black" fill-opacity="0.4"/>
<defs>
<filter id="filter0_i" x="0" y="0" width="321" height="39" filterUnits="userSpaceOnUse" color-interpolation-filters="sRGB">
<feFlood flood-opacity="0" result="BackgroundImageFix"/>
<feBlend mode="normal" in="SourceGraphic" in2="BackgroundImageFix" result="shape"/>
<feColorMatrix in="SourceAlpha" type="matrix" values="0 0 0 0 0 0 0 0 0 0 0 0 0 0 0 0 0 0 127 0" result="hardAlpha"/>
<feOffset dx="4" dy="4"/>
<feGaussianBlur stdDeviation="2"/>
<feComposite in2="hardAlpha" operator="arithmetic" k2="-1" k3="1"/>
<feColorMatrix type="matrix" values="0 0 0 0 0 0 0 0 0 0 0 0 0 0 0 0 0 0 0.25 0"/>
<feBlend mode="normal" in2="shape" result="effect1_innerShadow"/>
</filter>
<linearGradient id="paint0_linear" x1="134" y1="12.8984" x2="262" y2="12.8983" gradientUnits="userSpaceOnUse">
<stop stop-color="#DF8761"/>
<stop offset="1" stop-color="#09BEF8"/>
</linearGradient>
</defs>
</svg>
