<svg width="47" height="47" viewBox="0 0 47 47" fill="none" xmlns="http://www.w3.org/2000/svg">
<path fill-rule="evenodd" clip-rule="evenodd" d="M46.53 14.0354C46.53 14.0354 46.0703 10.7737 44.6618 9.3376C42.8743 7.45172 40.8709 7.44291 39.9529 7.33349C33.3759 6.85431 23.5103 6.85431 23.5103 6.85431H23.4897C23.4897 6.85431 13.6241 6.85431 7.04706 7.33349C6.12762 7.44291 4.12572 7.45172 2.33678 9.3376C0.92825 10.774 0.47 14.0354 0.47 14.0354C0.47 14.0354 0 17.8666 0 21.696V25.2875C0 29.1184 0.47 32.9481 0.47 32.9481C0.47 32.9481 0.92825 36.2099 2.33678 37.6459C4.12572 39.5318 6.47425 39.4727 7.52 39.6695C11.28 40.0334 23.5 40.1457 23.5 40.1457C23.5 40.1457 33.3759 40.131 39.9529 39.6519C40.8709 39.541 42.8743 39.5322 44.6618 37.6463C46.0703 36.2099 46.53 32.9485 46.53 32.9485C46.53 32.9485 47 29.1187 47 25.2875V21.696C47 17.8666 46.53 14.0354 46.53 14.0354ZM18.6472 29.6394L18.6458 16.3402L31.3446 23.0128L18.6472 29.6394Z" fill="#C4C4C4"/>
</svg>
